<svg width="233" height="34" viewBox="0 0 233 34" fill="none" xmlns="http://www.w3.org/2000/svg">
<path d="M0 32.6059V0.699792H9.04895C14.2398 0.699792 18.0558 2.12797 20.4969 4.98432C22.9661 7.84068 24.2007 11.7606 24.2007 16.744C24.2007 21.6363 22.9661 25.5106 20.4969 28.3669C18.0558 31.1929 14.2398 32.6059 9.04895 32.6059H0ZM3.53541 29.4153H8.96478C11.8268 29.4153 14.0995 28.9139 15.7831 27.9111C17.4946 26.878 18.7152 25.4194 19.4447 23.5354C20.1743 21.6211 20.539 19.3573 20.539 16.744C20.539 14.07 20.1743 11.7758 19.4447 9.8614C18.7152 7.94703 17.4946 6.47327 15.7831 5.44012C14.0995 4.40697 11.8268 3.8904 8.96478 3.8904H3.53541V29.4153Z" fill="white"/>
<path d="M39.4488 33.1528C37.4847 33.1528 35.7169 32.6666 34.1457 31.6943C32.5744 30.7219 31.3258 29.3545 30.3998 27.5921C29.5019 25.7992 29.053 23.7026 29.053 21.302C29.053 18.9015 29.516 16.82 30.4419 15.0575C31.3678 13.2647 32.6165 11.8821 34.1877 10.9097C35.7871 9.93736 37.5688 9.45117 39.5329 9.45117C41.4971 9.45117 43.2648 9.93736 44.836 10.9097C46.4073 11.8821 47.6419 13.2647 48.5398 15.0575C49.4657 16.82 49.9287 18.9015 49.9287 21.302C49.9287 23.7026 49.4657 25.7992 48.5398 27.5921C47.6139 29.3545 46.3512 30.7219 44.7519 31.6943C43.1806 32.6666 41.4129 33.1528 39.4488 33.1528ZM39.4488 29.8711C40.6553 29.8711 41.7776 29.552 42.8158 28.9139C43.854 28.2758 44.6958 27.3186 45.3411 26.0423C45.9865 24.7661 46.3091 23.186 46.3091 21.302C46.3091 19.418 45.9865 17.8379 45.3411 16.5617C44.7238 15.2854 43.8961 14.3282 42.8579 13.6901C41.8197 13.052 40.7114 12.7329 39.5329 12.7329C38.3264 12.7329 37.2041 13.052 36.1659 13.6901C35.1277 14.3282 34.286 15.2854 33.6406 16.5617C32.9952 17.8379 32.6726 19.418 32.6726 21.302C32.6726 23.186 32.9952 24.7661 33.6406 26.0423C34.286 27.3186 35.1137 28.2758 36.1238 28.9139C37.162 29.552 38.2703 29.8711 39.4488 29.8711Z" fill="white"/>
<path d="M65.2823 33.1528C63.2902 33.1528 61.4944 32.6666 59.8951 31.6943C58.3238 30.6915 57.0752 29.3089 56.1492 27.5465C55.2513 25.7537 54.8024 23.6722 54.8024 21.302C54.8024 18.9318 55.2513 16.8655 56.1492 15.1031C57.0752 13.3103 58.3238 11.9277 59.8951 10.9553C61.4944 9.95256 63.2902 9.45117 65.2823 9.45117C67.7515 9.45117 69.8279 10.1501 71.5114 11.5479C73.223 12.9457 74.3032 14.8144 74.7522 17.1542H71.1326C70.852 15.7564 70.1646 14.6777 69.0703 13.918C67.976 13.128 66.6993 12.7329 65.2402 12.7329C64.0618 12.7329 62.9535 13.052 61.9153 13.6901C60.8771 14.3282 60.0353 15.2854 59.39 16.5617C58.7446 17.8379 58.422 19.418 58.422 21.302C58.422 23.186 58.7446 24.7661 59.39 26.0423C60.0353 27.3186 60.8771 28.291 61.9153 28.9595C62.9535 29.5976 64.0618 29.9166 65.2402 29.9166C66.6993 29.9166 67.976 29.5368 69.0703 28.7771C70.1646 27.9871 70.852 26.878 71.1326 25.4498H74.7522C74.3313 27.7288 73.2651 29.5824 71.5535 31.0106C69.8419 32.4387 67.7515 33.1528 65.2823 33.1528Z" fill="white"/>
<path d="M88.2053 32.6059C86.2973 32.6059 84.7961 32.1045 83.7018 31.1017C82.6075 30.099 82.0604 28.291 82.0604 25.6777V13.2343H78.4408V9.99814H82.0604L82.5234 4.5741H85.5958V9.99814H91.7407V13.2343H85.5958V25.6777C85.5958 27.1059 85.8624 28.0782 86.3955 28.5948C86.9286 29.081 87.8685 29.3241 89.2154 29.3241H91.404V32.6059H88.2053Z" fill="white"/>
<path d="M106.011 33.1528C104.046 33.1528 102.279 32.6666 100.707 31.6943C99.1361 30.7219 97.8875 29.3545 96.9616 27.5921C96.0637 25.7992 95.6147 23.7026 95.6147 21.302C95.6147 18.9015 96.0777 16.82 97.0036 15.0575C97.9296 13.2647 99.1782 11.8821 100.749 10.9097C102.349 9.93736 104.131 9.45117 106.095 9.45117C108.059 9.45117 109.827 9.93736 111.398 10.9097C112.969 11.8821 114.204 13.2647 115.102 15.0575C116.027 16.82 116.49 18.9015 116.49 21.302C116.49 23.7026 116.027 25.7992 115.102 27.5921C114.176 29.3545 112.913 30.7219 111.314 31.6943C109.742 32.6666 107.975 33.1528 106.011 33.1528ZM106.011 29.8711C107.217 29.8711 108.339 29.552 109.378 28.9139C110.416 28.2758 111.258 27.3186 111.903 26.0423C112.548 24.7661 112.871 23.186 112.871 21.302C112.871 19.418 112.548 17.8379 111.903 16.5617C111.286 15.2854 110.458 14.3282 109.42 13.6901C108.381 13.052 107.273 12.7329 106.095 12.7329C104.888 12.7329 103.766 13.052 102.728 13.6901C101.689 14.3282 100.848 15.2854 100.202 16.5617C99.557 17.8379 99.2343 19.418 99.2343 21.302C99.2343 23.186 99.557 24.7661 100.202 26.0423C100.848 27.3186 101.675 28.2758 102.686 28.9139C103.724 29.552 104.832 29.8711 106.011 29.8711Z" fill="white"/>
<path d="M122.248 32.6059V9.99814H125.447L125.741 14.3282C126.387 12.8393 127.369 11.6542 128.687 10.773C130.006 9.89178 131.634 9.45117 133.57 9.45117V13.4622H132.602C131.367 13.4622 130.231 13.7053 129.193 14.1915C128.154 14.6473 127.327 15.4374 126.709 16.5617C126.092 17.686 125.783 19.2357 125.783 21.2108V32.6059H122.248Z" fill="white"/>
<path d="M151.679 33.1528C148.705 33.1528 146.152 32.4691 144.019 31.1017C141.887 29.7039 140.246 27.7744 139.095 25.3131C137.945 22.8213 137.369 19.9498 137.369 16.6984C137.369 13.447 137.945 10.5755 139.095 8.08377C140.246 5.59206 141.887 3.64731 144.019 2.24952C146.152 0.851727 148.705 0.152832 151.679 0.152832C155.215 0.152832 158.105 1.11001 160.35 3.02438C162.622 4.90836 164.039 7.5672 164.601 11.0009H158.666C158.301 9.26885 157.516 7.91664 156.309 6.94427C155.131 5.94151 153.559 5.44012 151.595 5.44012C148.874 5.44012 146.741 6.44289 145.198 8.44841C143.655 10.4539 142.883 13.2039 142.883 16.6984C142.883 20.1929 143.655 22.9429 145.198 24.9484C146.741 26.9236 148.874 27.9111 151.595 27.9111C153.559 27.9111 155.131 27.4553 156.309 26.5437C157.516 25.6017 158.301 24.3103 158.666 22.6694H164.601C164.039 25.9512 162.622 28.5189 160.35 30.3724C158.105 32.226 155.215 33.1528 151.679 33.1528Z" fill="white"/>
<path d="M177.282 33.1528C175.486 33.1528 174.013 32.849 172.863 32.2412C171.712 31.6031 170.856 30.7675 170.295 29.7343C169.734 28.7012 169.453 27.5617 169.453 26.3158C169.453 24.2191 170.211 22.5175 171.726 21.2108C173.241 19.9042 175.514 19.2509 178.545 19.2509H183.848V18.7039C183.848 17.1542 183.441 16.0147 182.627 15.2854C181.813 14.5561 180.803 14.1915 179.597 14.1915C178.502 14.1915 177.548 14.4802 176.735 15.0575C175.921 15.6045 175.416 16.4249 175.22 17.5189H169.959C170.099 15.878 170.604 14.4498 171.474 13.2343C172.372 12.0189 173.522 11.0921 174.925 10.4539C176.328 9.78543 177.899 9.45117 179.639 9.45117C182.613 9.45117 184.956 10.2564 186.668 11.8669C188.379 13.4774 189.235 15.7564 189.235 18.7039V32.6059H184.647L184.142 28.9595C183.525 30.1749 182.655 31.1777 181.533 31.9678C180.438 32.7578 179.022 33.1528 177.282 33.1528ZM178.502 28.5948C180.046 28.5948 181.238 28.0479 182.08 26.9539C182.95 25.86 183.497 24.5078 183.721 22.8973H179.134C177.703 22.8973 176.679 23.186 176.061 23.7633C175.444 24.3103 175.135 24.994 175.135 25.8144C175.135 26.6957 175.444 27.3794 176.061 27.8655C176.679 28.3517 177.492 28.5948 178.502 28.5948Z" fill="white"/>
<path d="M195.218 32.6059V9.99814H200.016L200.521 14.2371C201.278 12.7785 202.302 11.6238 203.593 10.773C204.912 9.89178 206.455 9.45117 208.223 9.45117V15.6045H206.708C205.529 15.6045 204.477 15.802 203.551 16.197C202.625 16.5921 201.896 17.2758 201.363 18.2481C200.857 19.2205 200.605 20.5727 200.605 22.3048V32.6059H195.218Z" fill="white"/>
<path d="M222.52 33.1528C220.416 33.1528 218.55 32.6666 216.922 31.6943C215.295 30.7219 214.018 29.3545 213.092 27.5921C212.166 25.8296 211.703 23.7937 211.703 21.4843C211.703 19.1445 212.152 17.0631 213.05 15.2399C213.976 13.4166 215.239 12.0037 216.838 11.0009C218.466 9.96775 220.374 9.45117 222.562 9.45117C224.61 9.45117 226.42 9.93736 227.992 10.9097C229.563 11.8821 230.783 13.2191 231.653 14.9208C232.551 16.5921 233 18.4608 233 20.5271C233 20.8614 232.986 21.2108 232.958 21.5755C232.958 21.9401 232.944 22.32 232.916 22.715H217.049C217.161 24.4774 217.722 25.86 218.732 26.8628C219.77 27.8655 221.019 28.3669 222.478 28.3669C223.572 28.3669 224.484 28.1086 225.214 27.5921C225.971 27.0451 226.532 26.3462 226.897 25.4954H232.369C231.976 26.9236 231.316 28.2302 230.391 29.4153C229.493 30.57 228.37 31.4816 227.023 32.1501C225.705 32.8186 224.204 33.1528 222.52 33.1528ZM222.562 14.1915C221.243 14.1915 220.079 14.6017 219.069 15.4222C218.059 16.2122 217.413 17.4277 217.133 19.0686H227.529C227.444 17.5796 226.939 16.3945 226.013 15.5133C225.087 14.6321 223.937 14.1915 222.562 14.1915Z" fill="white"/>
</svg>
