<svg width="237" height="35" viewBox="0 0 237 35" fill="none" xmlns="http://www.w3.org/2000/svg">
<path d="M0.00165599 3.89105C-0.0106824 3.55298 0.0460742 3.21737 0.166991 2.90398C0.287907 2.59058 0.470515 2.30927 0.702477 2.07484C1.24043 1.60598 1.91658 1.35181 2.61493 1.35181C3.31328 1.35181 3.98943 1.60845 4.52738 2.07484C4.75687 2.3142 4.93948 2.59798 5.06287 2.91138C5.18625 3.22478 5.25041 3.56038 5.25041 3.90092C5.25041 4.24146 5.18625 4.57706 5.06287 4.89046C4.93948 5.20385 4.75687 5.48764 4.52738 5.727C3.99189 6.19586 3.31822 6.45003 2.61986 6.45003C1.92151 6.45003 1.24783 6.19339 0.712348 5.727C0.480386 5.4901 0.29531 5.20385 0.174394 4.88799C0.0534772 4.56966 -0.00574704 4.23159 0.00165599 3.89105ZM4.96169 27.0379H0.273101V8.64133H4.96169V27.0379Z" fill="white"/>
<path d="M8.01177 17.7524C8.01177 14.8997 8.69779 12.6073 10.0673 10.87C10.7089 10.0261 11.548 9.34992 12.5104 8.89586C13.4727 8.44181 14.5314 8.22465 15.5949 8.26414C16.5031 8.21725 17.4112 8.38258 18.2452 8.74533C19.0793 9.10808 19.8147 9.66084 20.3971 10.3543L20.5969 8.60221H25.135V26.5521C25.172 28.0451 24.7821 29.5158 24.0147 30.799C23.262 32.0032 22.1664 32.9607 20.8684 33.5504C19.3754 34.2068 17.7566 34.5276 16.1255 34.4906C14.7485 34.4906 13.3864 34.2118 12.118 33.6788C10.9681 33.242 9.95137 32.514 9.17158 31.5689L11.3802 28.5485C11.9378 29.2049 12.6337 29.7305 13.4185 30.0908C14.2032 30.451 15.0595 30.6336 15.9232 30.6287C17.0583 30.6929 18.1737 30.3128 19.0275 29.5701C19.41 29.1728 19.7061 28.7039 19.8961 28.1882C20.0861 27.6724 20.1651 27.1246 20.1305 26.5768V25.5823C19.563 26.2214 18.8622 26.7248 18.0725 27.0604C17.2853 27.3961 16.4315 27.5515 15.5752 27.517C14.5215 27.5441 13.4752 27.322 12.5252 26.8655C11.5751 26.409 10.7509 25.7353 10.1167 24.8988C8.72 23.1467 8.03151 20.8098 8.03151 17.9572V17.7474H8.00684L8.01177 17.7524ZM13.0088 18.1077C12.9323 19.4995 13.2901 20.8814 14.0354 22.0634C14.3389 22.5199 14.7559 22.895 15.2445 23.1467C15.7356 23.3984 16.281 23.5243 16.8337 23.507C17.4852 23.5514 18.1342 23.4182 18.7116 23.1171C19.2891 22.8185 19.7727 22.3669 20.1083 21.8117V13.9867C19.7826 13.4339 19.3063 12.9799 18.7338 12.6813C18.1613 12.3827 17.5173 12.247 16.8732 12.2914C16.313 12.2741 15.7603 12.4 15.2643 12.6566C14.7683 12.9132 14.3488 13.2933 14.0452 13.7597C13.3568 14.7344 13.0088 16.178 13.0088 18.1077Z" fill="white"/>
<path d="M33.098 8.61207L33.2559 10.8083C33.8877 9.9841 34.6995 9.32276 35.6274 8.88105C36.5552 8.43933 37.5744 8.22465 38.5985 8.26166C40.5677 8.26166 42.0359 8.85884 42.9885 10.0507C43.941 11.2451 44.4444 12.9873 44.474 15.3439V27.5935H39.5115V15.4623C39.5855 14.6209 39.3388 13.7819 38.8279 13.1181C38.5145 12.8491 38.1518 12.6467 37.7594 12.5209C37.3671 12.395 36.9574 12.3506 36.5478 12.3901C35.9111 12.3654 35.2794 12.5209 34.7267 12.8441C34.1739 13.1649 33.7174 13.6387 33.4139 14.2112V27.5811H28.4514V8.62441L33.098 8.61207Z" fill="white"/>
<path d="M47.5118 3.89107C47.4994 3.553 47.5636 3.2174 47.6968 2.904C47.8301 2.59061 48.03 2.30929 48.2866 2.0724C48.8813 1.606 49.6315 1.34937 50.4039 1.34937C51.1763 1.34937 51.924 1.606 52.5211 2.0724C53.0295 2.55853 53.3133 3.21493 53.3133 3.89848C53.3133 4.58202 53.0295 5.23843 52.5211 5.72456C51.9289 6.19095 51.1812 6.44759 50.4113 6.44759C49.6414 6.44759 48.8936 6.19095 48.3014 5.72456C48.0448 5.48766 47.8424 5.20141 47.7067 4.88555C47.571 4.56969 47.5068 4.23161 47.5167 3.89107H47.5118ZM52.9949 27.0404H47.8153V8.64136H52.9949V27.0379V27.0404Z" fill="white"/>
<path d="M62.4536 4.11331V8.7254H65.5604V12.4022H62.4536V21.7844C62.4043 22.3149 62.5449 22.8479 62.8484 23.2798C63.0508 23.4574 63.2852 23.5882 63.5394 23.6672C63.7936 23.7437 64.0601 23.7659 64.3217 23.7289C64.7979 23.7314 65.2717 23.6943 65.743 23.6154V27.4181C64.7905 27.7191 63.7985 27.8697 62.804 27.8672C59.406 27.8672 57.6762 26.0929 57.6145 22.5469V12.4244H54.9716V8.74761H57.6145V4.13552H62.4561V4.11084L62.4536 4.11331Z" fill="white"/>
<path d="M76.4873 27.8599C75.2485 27.9068 74.0122 27.7069 72.8499 27.2701C71.6901 26.8334 70.629 26.1671 69.7283 25.3108C67.9886 23.6106 67.1224 21.3526 67.1224 18.5123V18.0188C67.0879 16.2618 67.4654 14.5221 68.2205 12.9379C68.8991 11.5041 69.98 10.2999 71.3323 9.47324C72.7191 8.64903 74.3083 8.22953 75.9222 8.2542C78.4984 8.2542 80.5417 9.06854 82.0198 10.7021C83.4979 12.3357 84.2456 14.643 84.2456 17.6314V19.687H72.2354C72.3465 20.8246 72.8696 21.8807 73.7086 22.658C74.5674 23.4107 75.6803 23.808 76.8204 23.7685C77.6915 23.808 78.5626 23.6352 79.3522 23.2676C80.1444 22.8999 80.8353 22.3447 81.3683 21.6537L83.8434 24.4348C83.0636 25.5304 82.0025 26.3966 80.7736 26.9419C79.4312 27.5663 77.9679 27.8797 76.4873 27.8574V27.8599ZM75.8925 12.3456C75.4385 12.3283 74.9869 12.4098 74.5674 12.585C74.1479 12.7602 73.7728 13.0218 73.4644 13.3574C72.7882 14.189 72.3761 15.2032 72.2774 16.2692H79.2831V15.8645C79.3226 14.912 78.9994 13.9768 78.375 13.2562C78.0518 12.9428 77.6668 12.701 77.2448 12.5455C76.8229 12.39 76.3737 12.3209 75.9246 12.3481H75.895L75.8925 12.3456Z" fill="white"/>
<path d="M97.7711 27.0381H92.8135V0.779541H97.7711V27.0381Z" fill="white"/>
<path d="M112.209 27.0382C111.982 26.594 111.817 26.0412 111.713 25.3799C110.517 26.7124 108.962 27.3812 107.047 27.3812C105.236 27.3812 103.733 26.858 102.544 25.8093C101.352 24.7605 100.757 23.4378 100.757 21.8437C100.757 19.8844 101.482 18.3791 102.936 17.3303C104.389 16.2815 106.489 15.751 109.236 15.7411H111.509V14.68C111.509 13.8262 111.289 13.1402 110.85 12.6294C110.41 12.1161 109.72 11.8595 108.772 11.8595C107.94 11.8595 107.286 12.0593 106.815 12.4591C106.341 12.8589 106.107 13.4042 106.107 14.1001H101.167C101.167 13.0291 101.497 12.0371 102.159 11.1266C102.82 10.216 103.755 9.50037 104.962 8.98215C106.169 8.46394 107.526 8.20483 109.031 8.20483C111.311 8.20483 113.12 8.77734 114.46 9.92234C115.8 11.0673 116.469 12.6787 116.469 14.7516V22.7691C116.481 24.5236 116.725 25.8512 117.204 26.7519V27.0431H112.212L112.209 27.0382ZM108.123 23.6032C108.851 23.6032 109.525 23.4403 110.139 23.117C110.753 22.7913 111.21 22.357 111.506 21.8091V18.6283H109.66C107.188 18.6283 105.87 19.4821 105.712 21.1922L105.695 21.4834C105.695 22.0979 105.912 22.6062 106.344 23.006C106.778 23.4057 107.37 23.6056 108.123 23.6056V23.6032Z" fill="white"/>
<path d="M136.58 17.962C136.58 20.9257 135.948 23.2354 134.682 24.8937C133.417 26.552 131.65 27.3811 129.382 27.3811C127.376 27.3811 125.774 26.6112 124.577 25.0738L124.355 27.0406H119.911V0.779541H124.851V10.1987C125.991 8.86613 127.489 8.19738 129.347 8.19738C131.603 8.19738 133.372 9.02652 134.655 10.6848C135.938 12.3431 136.578 14.6775 136.578 17.6856V17.9595L136.58 17.962ZM131.64 17.6042C131.64 15.7361 131.344 14.3715 130.751 13.5103C130.159 12.6491 129.276 12.2197 128.101 12.2197C126.529 12.2197 125.446 12.8638 124.854 14.1519V21.4513C125.458 22.7493 126.551 23.4008 128.136 23.4008C129.72 23.4008 130.779 22.6136 131.282 21.0417C131.521 20.289 131.64 19.144 131.64 17.6042Z" fill="white"/>
<path d="M164.51 18.2806H162.227V22.8112H160.179V11.0305H164.322C165.682 11.0305 166.731 11.3365 167.471 11.946C168.211 12.5555 168.579 13.439 168.579 14.5938C168.579 15.381 168.389 16.0424 168.009 16.5729C167.629 17.1059 167.098 17.5131 166.42 17.7994L169.065 22.7051V22.8112H166.871L164.507 18.2806H164.51ZM162.227 16.6297H164.332C165.023 16.6297 165.561 16.4545 165.951 16.1065C166.341 15.7586 166.533 15.2823 166.533 14.6777C166.533 14.0732 166.353 13.5574 165.995 13.2119C165.637 12.8665 165.102 12.6888 164.389 12.6789H162.227V16.6272V16.6297Z" fill="#C4C4CC"/>
<path d="M179.067 17.5526H174.228V21.1776H179.883V22.8112H172.179V11.0305H179.827V12.6814H174.228V15.9338H179.067V17.5526Z" fill="#C4C4CC"/>
<path d="M189.804 20.0696H185.238L184.283 22.8137H182.156L186.608 11.0305H188.444L192.903 22.8137H190.766L189.804 20.0696ZM185.813 18.4187H189.229L187.521 13.5303L185.813 18.4187Z" fill="#C4C4CC"/>
<path d="M204.716 18.9763C204.597 20.2323 204.133 21.2144 203.324 21.9177C202.514 22.621 201.439 22.9739 200.096 22.9739C199.158 22.9739 198.332 22.7518 197.616 22.3052C196.901 21.861 196.35 21.2268 195.96 20.4075C195.573 19.5882 195.371 18.6357 195.353 17.5499V16.4493C195.353 15.3389 195.551 14.3592 195.943 13.5128C196.335 12.6664 196.903 12.0125 197.638 11.5535C198.374 11.0945 199.225 10.865 200.192 10.865C201.493 10.865 202.539 11.2179 203.331 11.9212C204.123 12.6244 204.585 13.6214 204.716 14.912H202.677C202.581 14.0656 202.334 13.4536 201.937 13.0785C201.54 12.7034 200.96 12.5159 200.192 12.5159C199.302 12.5159 198.618 12.8416 198.142 13.4931C197.663 14.1445 197.421 15.0971 197.409 16.3556V17.3994C197.409 18.6727 197.636 19.645 198.092 20.3162C198.549 20.9849 199.215 21.3205 200.096 21.3205C200.901 21.3205 201.505 21.1404 201.91 20.7777C202.315 20.4149 202.571 19.8153 202.68 18.9738H204.718L204.716 18.9763Z" fill="#C4C4CC"/>
<path d="M216.481 12.6814H212.807V22.8137H210.776V12.6814H207.134V11.0305H216.481V12.6814Z" fill="#C4C4CC"/>
<path d="M222.759 11.0305H224.798V19.2923C224.798 20.42 224.445 21.3158 223.741 21.9796C223.038 22.6434 222.108 22.9741 220.953 22.9741C219.724 22.9741 218.774 22.6632 218.105 22.0438C217.436 21.4244 217.101 20.5607 217.101 19.4552H219.139C219.139 20.082 219.295 20.5508 219.606 20.8667C219.916 21.1825 220.366 21.3405 220.953 21.3405C221.503 21.3405 221.942 21.1579 222.268 20.7951C222.594 20.4299 222.757 19.929 222.757 19.2849V11.0305H222.759Z" fill="#C4C4CC"/>
<path d="M234.952 19.7784C234.952 19.2602 234.77 18.8605 234.407 18.5816C234.044 18.3028 233.385 18.019 232.435 17.7327C231.485 17.4465 230.73 17.1282 230.17 16.7777C229.097 16.1041 228.559 15.2231 228.559 14.1398C228.559 13.1897 228.946 12.4075 229.721 11.793C230.496 11.1786 231.5 10.8701 232.736 10.8701C233.556 10.8701 234.286 11.0206 234.93 11.3242C235.572 11.6252 236.078 12.0571 236.443 12.6148C236.81 13.1725 236.993 13.7918 236.993 14.4729H234.955C234.955 13.8585 234.762 13.3773 234.377 13.0293C233.992 12.6814 233.44 12.5062 232.722 12.5062C232.053 12.5062 231.532 12.6493 231.164 12.9356C230.794 13.2218 230.609 13.6216 230.609 14.1324C230.609 14.5642 230.809 14.9245 231.209 15.2132C231.609 15.502 232.265 15.7833 233.183 16.0547C234.101 16.3262 234.836 16.6371 235.392 16.985C235.947 17.333 236.354 17.7327 236.613 18.1818C236.872 18.6334 237 19.1591 237 19.7636C237 20.7458 236.625 21.5256 235.873 22.1055C235.12 22.6854 234.098 22.9766 232.81 22.9766C231.957 22.9766 231.174 22.8186 230.459 22.5028C229.743 22.1869 229.188 21.7526 228.791 21.1949C228.393 20.6397 228.196 19.9907 228.196 19.2528H230.244C230.244 19.9216 230.466 20.4398 230.908 20.8075C231.349 21.1751 231.984 21.3578 232.81 21.3578C233.524 21.3578 234.057 21.2146 234.417 20.9259C234.775 20.6372 234.955 20.2547 234.955 19.7809L234.952 19.7784Z" fill="#C4C4CC"/>
<path d="M150.271 33.9254H145.313V1.34961H150.271V33.9254Z" fill="#00B37E"/>
</svg>
