<svg width="42" height="37" viewBox="0 0 42 37" fill="none" xmlns="http://www.w3.org/2000/svg">
<path d="M33.9352 12.4553C33.5046 12.3118 33.074 12.1762 32.6433 12.0486C32.7151 11.7535 32.7789 11.4585 32.8427 11.1634C33.8236 6.41038 33.1776 2.59043 31.0005 1.3304C28.9031 0.126198 25.4819 1.37825 22.0208 4.39274C21.6779 4.68781 21.3429 4.99883 21.024 5.30985C20.8086 5.10251 20.5853 4.89516 20.362 4.69579C16.7335 1.47395 13.097 0.118223 10.9198 1.38622C8.83041 2.5984 8.20837 6.19506 9.0856 10.6929C9.17333 11.1395 9.26902 11.5781 9.38067 12.0247C8.87028 12.1682 8.36787 12.3277 7.89735 12.4952C3.63878 13.9705 0.584412 16.2992 0.584412 18.7076C0.584412 21.1958 3.83815 23.6919 8.26419 25.2071C8.62306 25.3267 8.98193 25.4463 9.34877 25.55C9.22915 26.0285 9.12548 26.499 9.02978 26.9855C8.19242 31.4115 8.84636 34.9205 10.9358 36.1247C13.089 37.3688 16.7096 36.0928 20.2344 33.0065C20.5136 32.7593 20.7927 32.5041 21.0718 32.2329C21.4227 32.5759 21.7895 32.9028 22.1564 33.2218C25.5696 36.1566 28.943 37.3448 31.0244 36.1406C33.1776 34.8965 33.8794 31.1244 32.9703 26.5309C32.8985 26.18 32.8188 25.8212 32.731 25.4543C32.9862 25.3826 33.2335 25.3028 33.4807 25.2231C38.0822 23.6999 41.4156 21.2356 41.4156 18.7076C41.4156 16.2912 38.2736 13.9466 33.9352 12.4553ZM23.1453 5.68467C26.1119 3.10082 28.8792 2.08801 30.1392 2.81372C31.487 3.58728 32.0053 6.71342 31.16 10.8205C31.1042 11.0916 31.0483 11.3548 30.9766 11.618C29.2062 11.2192 27.4118 10.9321 25.6095 10.7726C24.5728 9.2893 23.4403 7.86978 22.2122 6.53798C22.5232 6.24291 22.8263 5.96379 23.1453 5.68467ZM13.9184 22.8465C14.3251 23.5404 14.7398 24.2342 15.1784 24.912C13.9343 24.7765 12.6982 24.5771 11.4781 24.3139C11.829 23.1655 12.2676 21.9773 12.778 20.7651C13.1448 21.4669 13.5196 22.1607 13.9184 22.8465ZM11.502 13.2528C12.6504 12.9976 13.8705 12.7903 15.1385 12.6308C14.7158 13.2927 14.3012 13.9705 13.9104 14.6564C13.5196 15.3342 13.1368 16.0281 12.778 16.7298C12.2755 15.5416 11.8529 14.3773 11.502 13.2528ZM13.6871 18.7475C14.2134 17.6469 14.7876 16.5703 15.3937 15.5097C15.9998 14.449 16.6537 13.4203 17.3396 12.4075C18.5358 12.3197 19.756 12.2719 21 12.2719C22.2441 12.2719 23.4722 12.3197 24.6605 12.4075C25.3383 13.4123 25.9843 14.4411 26.5984 15.4937C27.2124 16.5464 27.7866 17.623 28.3289 18.7156C27.7946 19.8161 27.2204 20.9007 26.6063 21.9693C26.0003 23.03 25.3543 24.0587 24.6764 25.0795C23.4882 25.1672 22.2521 25.2071 21 25.2071C19.748 25.2071 18.5358 25.1672 17.3635 25.0955C16.6697 24.0827 16.0157 23.0459 15.4017 21.9853C14.7876 20.9246 14.2214 19.848 13.6871 18.7475ZM28.0897 22.8306C28.4964 22.1288 28.8792 21.419 29.254 20.7013C29.7644 21.8577 30.211 23.03 30.6018 24.2342C29.3656 24.5133 28.1136 24.7286 26.8536 24.8722C27.2842 24.2023 27.6909 23.5164 28.0897 22.8306ZM29.2381 16.7298C28.8632 16.0281 28.4804 15.3263 28.0817 14.6404C27.6909 13.9626 27.2842 13.2927 26.8615 12.6308C28.1455 12.7903 29.3736 13.0056 30.522 13.2688C30.1552 14.449 29.7245 15.5974 29.2381 16.7298ZM21.016 7.75813C21.8533 8.66726 22.6428 9.62425 23.3765 10.6131C21.7975 10.5414 20.2105 10.5414 18.6315 10.6131C19.413 9.58437 20.2185 8.62739 21.016 7.75813ZM11.7652 2.86955C13.1049 2.08801 16.0795 3.20449 19.2137 5.97974C19.413 6.15519 19.6124 6.34658 19.8198 6.53798C18.5836 7.86978 17.4432 9.2893 16.3985 10.7726C14.5962 10.9321 12.8099 11.2112 11.0394 11.602C10.9358 11.1953 10.848 10.7806 10.7603 10.3659C10.0107 6.50608 10.5051 3.59526 11.7652 2.86955ZM9.81131 23.8913C9.47637 23.7956 9.1494 23.6919 8.82243 23.5802C7.12379 23.0459 5.19388 22.2006 3.79828 21.0921C2.99282 20.5338 2.45053 19.6726 2.299 18.7076C2.299 17.2482 4.81906 15.3821 8.45559 14.1141C8.91016 13.9546 9.3727 13.811 9.83524 13.6755C10.3775 15.406 11.0315 17.1047 11.7891 18.7475C11.0235 20.4142 10.3616 22.1368 9.81131 23.8913ZM19.11 31.7066C17.7941 32.9108 16.2709 33.8678 14.6122 34.5217C13.727 34.9444 12.7062 34.9843 11.7971 34.6254C10.5291 33.8917 10.0027 31.0766 10.7204 27.2885C10.8082 26.842 10.9039 26.3954 11.0155 25.9567C12.8019 26.3395 14.6042 26.6027 16.4304 26.7383C17.4831 28.2296 18.6395 29.6571 19.8756 30.9968C19.6204 31.2441 19.3652 31.4833 19.11 31.7066ZM21.0638 29.7687C20.2504 28.8915 19.437 27.9186 18.6474 26.8738C19.413 26.9057 20.2025 26.9217 21 26.9217C21.8214 26.9217 22.6269 26.9057 23.4244 26.8659C22.6907 27.8787 21.9012 28.8436 21.0638 29.7687ZM31.487 32.1612C31.4152 33.1341 30.9367 34.0432 30.1711 34.6573C28.9031 35.391 26.1996 34.434 23.2808 31.9299C22.9459 31.6428 22.611 31.3318 22.268 31.0128C23.4882 29.665 24.6126 28.2375 25.6334 26.7383C27.4597 26.5868 29.2779 26.3076 31.0723 25.9009C31.152 26.2279 31.2238 26.5549 31.2876 26.8738C31.6784 28.5964 31.7422 30.3908 31.487 32.1612ZM32.9384 23.5882C32.7151 23.66 32.4918 23.7318 32.2605 23.7956C31.7023 22.057 31.0164 20.3584 30.2269 18.7076C30.9925 17.0807 31.6385 15.406 32.1808 13.6914C32.5955 13.811 32.9942 13.9386 33.377 14.0662C37.0933 15.3422 39.7011 17.2402 39.7011 18.6917C39.7011 20.2547 36.9178 22.2724 32.9384 23.5882ZM21 22.392C23.0177 22.392 24.6525 20.7571 24.6525 18.7395C24.6525 16.7219 23.0177 15.087 21 15.087C18.9824 15.087 17.3475 16.7219 17.3475 18.7395C17.3475 20.7571 18.9824 22.392 21 22.392Z" fill="white"/>
</svg>
