<svg width="40" height="41" viewBox="0 0 40 41" fill="none" xmlns="http://www.w3.org/2000/svg">
<g clip-path="url(#clip0_13_1328)">
<path d="M20.0016 8.60889C14.6683 8.60889 11.335 11.2756 10.0016 16.6089C12.0016 13.9422 14.335 12.9422 17.0016 13.6089C18.5233 13.9889 19.61 15.0922 20.815 16.3156C22.7766 18.3056 25.045 20.6089 30.0016 20.6089C35.335 20.6089 38.6683 17.9422 40.0016 12.6089C38.0016 15.2756 35.6683 16.2756 33.0016 15.6089C31.48 15.2289 30.3933 14.1256 29.1883 12.9022C27.2283 10.9122 24.96 8.60889 20.0016 8.60889ZM10.0016 20.6089C4.66831 20.6089 1.33498 23.2756 0.00164795 28.6089C2.00165 25.9422 4.33498 24.9422 7.00165 25.6089C8.52331 25.9889 9.60998 27.0922 10.815 28.3156C12.7766 30.3056 15.045 32.6089 20.0016 32.6089C25.335 32.6089 28.6683 29.9422 30.0016 24.6089C28.0016 27.2756 25.6683 28.2756 23.0016 27.6089C21.48 27.2289 20.3933 26.1256 19.1883 24.9022C17.2283 22.9122 14.96 20.6089 10.0016 20.6089Z" fill="white"/>
</g>
<defs>
<clipPath id="clip0_13_1328">
<rect width="40" height="40" fill="white" transform="translate(0 0.608887)"/>
</clipPath>
</defs>
</svg>
