<svg width="40" height="41" viewBox="0 0 40 41" fill="none" xmlns="http://www.w3.org/2000/svg">
<g clip-path="url(#clip0_13_1322)">
<path d="M3.125 0.741455H36.875C38.6009 0.741455 40 2.14052 40 3.86646V37.6165C40 39.3424 38.6009 40.7415 36.875 40.7415H3.125C1.39906 40.7415 0 39.3424 0 37.6165V3.86646C0 2.14052 1.39906 0.741455 3.125 0.741455Z" fill="white"/>
<path d="M23.5184 32.0657V36.3813C24.2203 36.741 25.0505 37.0107 26.0087 37.1905C26.967 37.3704 27.977 37.4602 29.0389 37.4602C30.0736 37.4602 31.0567 37.3613 31.988 37.1635C32.9192 36.9657 33.7359 36.6397 34.4377 36.1858C35.1395 35.7318 35.6952 35.1383 36.1047 34.4055C36.5141 33.6729 36.7188 32.7671 36.7188 31.6882C36.7188 30.906 36.6017 30.2204 36.3678 29.6315C36.1365 29.0465 35.7925 28.5127 35.3555 28.0604C34.9147 27.6018 34.3859 27.1905 33.7697 26.8263C33.1533 26.4622 32.4581 26.1183 31.6842 25.7947C31.1173 25.5608 30.6091 25.334 30.1591 25.1136C29.7092 24.8933 29.3267 24.6686 29.0119 24.4393C28.6969 24.21 28.4539 23.9672 28.283 23.711C28.112 23.4547 28.0266 23.1649 28.0266 22.8411C28.0266 22.5444 28.103 22.2771 28.2559 22.0388C28.4089 21.8005 28.625 21.596 28.9039 21.4252C29.1828 21.2543 29.5247 21.1218 29.9297 21.0272C30.3345 20.9329 30.7845 20.8857 31.2794 20.8857C31.6394 20.8857 32.0195 20.9127 32.4198 20.9666C32.8203 21.0205 33.223 21.1036 33.628 21.2161C34.0317 21.3281 34.4264 21.4701 34.8089 21.641C35.1798 21.8053 35.5345 22.004 35.8684 22.2343V18.2019C35.2116 17.9502 34.4939 17.7636 33.7156 17.6422C32.9373 17.5208 32.0442 17.4602 31.0364 17.4602C30.0106 17.4602 29.0389 17.5704 28.1211 17.7907C27.2033 18.0108 26.3956 18.3547 25.6983 18.8222C25.0009 19.2899 24.4498 19.8855 24.0448 20.6093C23.64 21.333 23.4375 22.1983 23.4375 23.2054C23.4375 24.491 23.8086 25.5879 24.5511 26.496C25.2934 27.404 26.4203 28.1727 27.932 28.8021C28.4901 29.0294 29.0436 29.2677 29.5922 29.5169C30.1052 29.7507 30.5483 29.9933 30.9217 30.245C31.2952 30.4968 31.5898 30.771 31.8058 31.0677C32.0217 31.3644 32.1297 31.7016 32.1297 32.0793C32.1315 32.3511 32.0616 32.6185 31.9272 32.8547C31.7923 33.0929 31.5875 33.2997 31.3131 33.475C31.0388 33.6504 30.6967 33.7874 30.2873 33.8863C29.878 33.9852 29.3988 34.0347 28.8498 34.0347C27.9141 34.0347 26.9873 33.8707 26.0695 33.5424C25.1516 33.2143 24.3013 32.7221 23.5184 32.0657ZM16.3253 21.3261H21.875V17.7727H6.40625V21.3261H11.9289V37.1477H16.3253V21.3261Z" fill="#020212"/>
</g>
<defs>
<clipPath id="clip0_13_1322">
<rect width="40" height="40" fill="white" transform="translate(0 0.741455)"/>
</clipPath>
</defs>
</svg>
