<svg width="1440" height="2356" viewBox="0 0 1440 2356" fill="none" xmlns="http://www.w3.org/2000/svg">
<g opacity="0.2" filter="url(#filter0_f_17_111)">
<ellipse cx="964.203" cy="559.285" rx="310.407" ry="305.446" fill="#373D98"/>
</g>
<g opacity="0.2" filter="url(#filter1_f_17_111)">
<ellipse cx="-129.034" cy="1681.33" rx="310.407" ry="305.446" fill="#373D98"/>
</g>
<g opacity="0.2" filter="url(#filter2_f_17_111)">
<ellipse cx="61.6284" cy="201.243" rx="310.407" ry="305.446" fill="#EDD696" fill-opacity="0.4"/>
</g>
<path d="M663.335 15.2392C624.451 145.35 582.157 192.461 546.966 207.951C481.204 236.902 437.358 156.668 373.757 188.4C315.843 217.287 306.306 310.502 266.847 380.185C220.062 462.817 124.529 529.959 -92.3248 438.822M719.035 -8.93186C676.712 157.227 628.171 215.608 587.567 234.184C513.504 267.931 463.283 172.462 390.772 211.98C326.633 246.525 318.067 348.724 269.31 429.87C216.575 517.649 118.016 584.838 -92.3292 500.304M774.745 -33.1028C728.991 169.121 674.204 238.756 628.186 260.433C545.822 298.976 489.302 188.624 407.814 235.559C337.506 276.068 329.946 387.075 271.791 479.57C213.234 572.705 111.513 639.735 -92.3059 561.803M830.454 -57.2735C781.271 181.015 720.228 261.904 668.804 286.667C578.149 330.021 515.263 204.498 424.847 259.123C348.331 305.354 341.88 425.522 274.272 529.239C206.663 632.957 105.019 694.599 -92.2833 623.253M886.164 -81.4445C833.541 192.908 766.252 285.068 709.414 312.9C610.458 361.05 541.216 220.34 441.88 282.702C359.157 334.625 353.86 464.08 276.752 578.924C206.781 683.137 98.5155 749.479 -92.2604 684.735M941.865 -105.615C885.811 204.802 812.266 308.216 750.023 339.133C642.776 392.079 567.159 236.167 458.904 306.265C369.964 363.863 365.876 502.686 279.224 628.593C203.597 738.481 92.0121 804.343 -92.2557 746.202M997.574 -129.786C938.091 216.696 858.29 331.364 790.642 365.366C675.094 423.108 593.103 251.961 475.946 329.845C380.79 393.102 377.929 541.388 281.705 678.293C200.448 793.888 85.5089 859.239 -92.2327 807.7M1053.28 -153.957C990.361 228.589 904.323 354.511 831.252 391.615C707.403 454.168 619.037 267.755 492.97 353.424C391.588 422.324 390.001 580.139 284.176 727.978C197.309 849.328 78.9965 914.119 -92.2188 869.183M1108.99 -178.128C1042.64 240.467 950.347 377.659 871.87 417.848C739.73 485.198 644.98 283.517 510.012 377.004C402.404 451.531 402.1 618.937 286.666 777.662C194.198 904.816 72.5112 969 -92.196 930.649M1164.69 -202.299C1094.91 252.36 996.362 400.807 912.48 444.081C772.039 516.226 670.793 298.768 527.036 400.567C413.109 480.322 414.19 657.767 289.129 827.347C191.068 960.303 65.9899 1023.88 -92.1912 992.131M1220.4 -226.47C1147.18 264.254 1042.39 423.955 953.09 470.314C804.348 547.271 696.727 314.546 544.069 424.147C423.916 509.56 426.317 696.645 291.609 877.032C187.966 1015.82 59.4956 1078.76 -92.1683 1053.61M1276.11 -250.641C1199.46 276.148 1088.41 447.103 993.708 496.548C836.675 578.3 722.67 330.325 561.102 447.71C434.723 538.767 438.444 735.539 294.09 926.701C184.863 1071.34 52.992 1133.62 -92.1547 1115.08M1331.81 -274.812C1251.73 288.041 1134.43 470.25 1034.32 522.797C868.985 609.345 748.604 346.135 578.135 471.305C445.531 568.021 450.58 774.481 296.571 976.401C181.77 1126.91 46.4977 1188.52 -92.1319 1176.56M1387.52 -298.983C1304 299.935 1180.46 493.398 1074.93 549.03C901.303 640.374 774.538 361.913 595.159 494.869C456.329 597.228 462.726 813.423 299.034 1026.09C178.668 1182.48 39.9766 1243.4 -92.1269 1238.04M1443.23 -323.154C1356.28 311.828 1226.48 516.546 1115.55 575.263C933.621 671.419 800.482 377.707 612.201 518.448C467.154 626.466 474.889 852.397 301.523 1075.77C175.585 1238.05 33.4912 1298.28 -92.095 1299.53M1498.94 -347.325C1408.56 323.706 1272.5 539.71 1156.16 601.496C965.939 702.448 826.425 393.485 629.233 542.012C477.961 655.673 487.246 891.867 304.004 1125.44C172.648 1293.96 26.9876 1353.14 -92.0814 1360.99M1554.64 -371.496C1460.82 335.6 1318.52 562.858 1196.77 627.729C998.248 733.477 852.35 409.264 646.257 565.591C488.759 684.911 499.309 930.633 306.467 1175.14C169.472 1349.39 20.4662 1408.04 -92.0765 1422.49M1610.35 -395.667C1513.1 347.493 1364.55 586.005 1237.38 653.978C1030.57 764.522 878.284 425.074 663.29 589.171C499.567 714.15 511.372 969.399 308.947 1224.82C166.324 1404.81 13.9721 1462.92 -92.0536 1483.96" stroke="url(#paint0_linear_17_111)" stroke-miterlimit="10"/>
<defs>
<filter id="filter0_f_17_111" x="417.74" y="17.7839" width="1092.93" height="1083" filterUnits="userSpaceOnUse" color-interpolation-filters="sRGB">
<feFlood flood-opacity="0" result="BackgroundImageFix"/>
<feBlend mode="normal" in="SourceGraphic" in2="BackgroundImageFix" result="shape"/>
<feGaussianBlur stdDeviation="118.028" result="effect1_foregroundBlur_17_111"/>
</filter>
<filter id="filter1_f_17_111" x="-808.501" y="1006.83" width="1358.93" height="1349.01" filterUnits="userSpaceOnUse" color-interpolation-filters="sRGB">
<feFlood flood-opacity="0" result="BackgroundImageFix"/>
<feBlend mode="normal" in="SourceGraphic" in2="BackgroundImageFix" result="shape"/>
<feGaussianBlur stdDeviation="184.53" result="effect1_foregroundBlur_17_111"/>
</filter>
<filter id="filter2_f_17_111" x="-484.834" y="-340.258" width="1092.93" height="1083" filterUnits="userSpaceOnUse" color-interpolation-filters="sRGB">
<feFlood flood-opacity="0" result="BackgroundImageFix"/>
<feBlend mode="normal" in="SourceGraphic" in2="BackgroundImageFix" result="shape"/>
<feGaussianBlur stdDeviation="118.028" result="effect1_foregroundBlur_17_111"/>
</filter>
<linearGradient id="paint0_linear_17_111" x1="1092.89" y1="161.508" x2="64.9867" y2="335.001" gradientUnits="userSpaceOnUse">
<stop stop-color="#2A3087"/>
<stop offset="1" stop-color="#20234F" stop-opacity="0"/>
</linearGradient>
</defs>
</svg>
