<svg width="177" height="84" viewBox="0 0 177 84" fill="none" xmlns="http://www.w3.org/2000/svg">
<path d="M50.4688 8.55801C49.7933 7.52353 48.8064 7.49382 47.6819 7.45997C47.5545 7.45613 47.4253 7.45224 47.2946 7.44683C47.1951 7.44225 47.0852 7.44402 46.9704 7.44586C46.5144 7.45319 45.9809 7.46175 45.7121 7.07855C45.4006 6.63427 45.4301 5.77569 45.4545 5.0669C45.4622 4.84293 45.4694 4.63378 45.4652 4.45753C45.4214 2.811 45.33 1.06197 44.6945 0.47727C44.2152 0.0385801 42.7813 0.0993547 41.459 0.155404C41.0303 0.173573 40.6133 0.191246 40.2444 0.191246H12.0977C11.531 0.191246 10.937 0.1451 10.3533 0.0997595C9.21594 0.011411 8.11796 -0.0738804 7.33826 0.191246C6.20669 0.577899 6.13007 2.60969 6.05792 4.52291L6.05403 4.62585C5.99346 6.2053 5.60204 7.42405 4.30476 7.30129C2.79594 7.16081 1.29457 7.11651 0.612389 8.48208C-0.193289 10.0978 -0.0271273 11.789 0.270495 14.8184C0.313008 15.2511 0.358204 15.7111 0.403633 16.2021H50.904C50.9329 15.8432 50.9636 15.489 50.9939 15.1404C51.2303 12.4149 51.4364 10.0403 50.4688 8.55801Z" fill="#8047F8"/>
<path fill-rule="evenodd" clip-rule="evenodd" d="M4.33645 19.2066C5.12517 29.8813 5.90528 40.5682 6.6854 51.2552L6.68587 51.2618C7.10945 57.0645 7.53303 62.8673 7.958 68.6681H9.56934C9.67914 69.5762 9.80478 70.6972 9.93724 71.879C10.2061 74.2782 10.5032 76.9287 10.7529 78.5574H10.9311C12.5724 77.9568 23.9189 73.107 23.924 53.7984C23.9219 53.7434 23.9237 53.6883 23.9294 53.6336H21.1262C20.9905 53.6324 20.859 53.5871 20.7518 53.5047C20.6447 53.4224 20.5679 53.3075 20.5333 53.1778C20.2601 52.503 20.0398 51.8084 19.8744 51.1002C18.2254 52.0316 16.9158 53.4538 16.1324 55.1641C15.3887 53.4124 15.2914 51.4581 15.8574 49.6427C16.4234 47.8273 17.6167 46.2662 19.2288 45.2323C19.2496 39.598 21.3591 34.1667 25.1581 29.9665L25.2174 29.9144C25.3279 29.8189 25.4692 29.7658 25.6158 29.7646C25.7006 29.7653 25.7844 29.7834 25.8617 29.8178C25.94 29.8526 26.0101 29.9032 26.0673 29.9665C29.9107 34.1724 32.0091 39.6559 31.9439 45.3234C33.5862 46.3286 34.8038 47.8885 35.3708 49.7138C35.9378 51.5391 35.8157 53.5057 35.0272 55.2488C34.248 53.5357 32.9374 52.1123 31.2851 51.1849C31.1842 51.8712 30.9983 52.5427 30.7317 53.1843C30.6395 53.4578 30.455 53.6336 30.2706 53.6336H27.2811C27.2858 53.6664 27.2891 53.6993 27.2911 53.7323L27.2922 53.7399V53.7558C27.2933 53.7843 27.2933 53.8128 27.2923 53.8413C27.3332 73.7041 39.3969 78.2126 40.4138 78.5574H40.7616C40.8505 76.993 41.1395 74.8342 41.4213 72.7296C41.6155 71.2792 41.8063 69.8547 41.9256 68.6681H43.5556C44.0773 61.3613 44.6139 54.075 45.1505 46.7884L45.1508 46.7845L45.151 46.7824C45.8373 37.4621 46.5237 28.1416 47.179 18.7776H4.44083C4.31781 18.8016 4.3262 19.0029 4.33645 19.2066ZM25.6158 29.7646L25.6127 29.7646H25.6193L25.6158 29.7646Z" fill="#8047F8"/>
<path d="M65.2396 11.882C65.2396 9.24698 66.1474 7.20482 67.963 5.75555C69.8115 4.27334 72.5844 3.53224 76.2816 3.53224C78.7244 3.53224 80.804 3.7628 82.5205 4.22393V11.0421C80.672 10.4822 78.8399 10.2022 77.0243 10.2022C75.2418 10.2022 74.0864 10.4163 73.5582 10.8445C73.0301 11.2397 72.766 11.8326 72.766 12.6231V29.2239C72.766 30.8049 74.0039 31.5954 76.4796 31.5954C78.9884 31.5954 81.0516 31.3484 82.6691 30.8543V37.5243C80.8865 38.0183 78.7243 38.2654 76.1825 38.2654C72.4854 38.2654 69.729 37.5407 67.9134 36.0914C66.1309 34.6422 65.2396 32.6 65.2396 29.965V11.882Z" fill="#403937"/>
<path d="M97.1331 16.5757C97.1331 15.324 96.4398 14.6982 95.0534 14.6982C93.667 14.6982 92.9738 15.324 92.9738 16.5757V30.3108C92.9738 31.5625 93.667 32.1883 95.0534 32.1883C96.4398 32.1883 97.1331 31.5625 97.1331 30.3108V16.5757ZM85.6454 16.3286C85.6454 13.8254 86.4212 11.882 87.9727 10.4986C89.5572 9.08229 91.9174 8.37412 95.0534 8.37412C98.1894 8.37412 100.533 9.08229 102.085 10.4986C103.669 11.882 104.461 13.8254 104.461 16.3286V30.5579C104.461 33.0611 103.669 35.021 102.085 36.4373C100.533 37.8207 98.1894 38.5124 95.0534 38.5124C91.9174 38.5124 89.5572 37.8207 87.9727 36.4373C86.4212 35.021 85.6454 33.0611 85.6454 30.5579V16.3286Z" fill="#403937"/>
<path d="M109.274 8.52234C109.274 2.95582 112.212 0.17256 118.088 0.17256C118.847 0.17256 119.755 0.254905 120.811 0.419595V6.15081C120.283 6.08493 119.788 6.05199 119.326 6.05199C117.642 6.05199 116.8 6.84251 116.8 8.42353V8.86819H120.811V14.6982H116.8V38.0183H109.274V14.6982H106.452V8.86819H109.274V8.52234Z" fill="#403937"/>
<path d="M123.877 8.52234C123.877 2.95582 126.815 0.17256 132.691 0.17256C133.45 0.17256 134.358 0.254905 135.414 0.419595V6.15081C134.886 6.08493 134.391 6.05199 133.929 6.05199C132.245 6.05199 131.404 6.84251 131.404 8.42353V8.86819H135.414V14.6982H131.404V38.0183H123.877V14.6982H121.055V8.86819H123.877V8.52234Z" fill="#403937"/>
<path d="M137.144 29.7179V16.3286C137.144 13.8254 137.919 11.882 139.471 10.4986C141.022 9.08229 143.366 8.37412 146.502 8.37412C152.543 8.37412 155.563 11.0256 155.563 16.3286V26.3583H144.323V29.1251C144.323 30.1132 144.587 30.8214 145.116 31.2496C145.677 31.6448 146.882 31.8424 148.73 31.8424C150.612 31.8424 152.658 31.5131 154.87 30.8543V37.376C152.559 38.0018 150.084 38.3148 147.443 38.3148C140.577 38.3148 137.144 35.4492 137.144 29.7179ZM144.323 20.6765H148.681V16.4275C148.681 15.1758 147.954 14.55 146.502 14.55C145.05 14.55 144.323 15.1758 144.323 16.4275V20.6765Z" fill="#403937"/>
<path d="M158.517 29.7179V16.3286C158.517 13.8254 159.292 11.882 160.844 10.4986C162.395 9.08229 164.739 8.37412 167.875 8.37412C173.916 8.37412 176.936 11.0256 176.936 16.3286V26.3583H165.696V29.1251C165.696 30.1132 165.96 30.8214 166.489 31.2496C167.05 31.6448 168.255 31.8424 170.103 31.8424C171.985 31.8424 174.031 31.5131 176.243 30.8543V37.376C173.932 38.0018 171.457 38.3148 168.816 38.3148C161.95 38.3148 158.517 35.4492 158.517 29.7179ZM165.696 20.6765H170.054V16.4275C170.054 15.1758 169.327 14.55 167.875 14.55C166.423 14.55 165.696 15.1758 165.696 16.4275V20.6765Z" fill="#403937"/>
<path d="M77.1576 56.2102C77.1576 53.7779 75.8711 52.5617 73.298 52.5617H69.1945V74.7366H73.298C75.8711 74.7366 77.1576 73.4934 77.1576 71.007V56.2102ZM66.3099 50.0483H73.4605C75.6273 50.0483 77.266 50.6023 78.3765 51.7104C79.487 52.8185 80.0422 54.3049 80.0422 56.1697V71.0881C80.0422 73.0069 79.5005 74.5204 78.4171 75.6284C77.3337 76.7365 75.7086 77.2905 73.5417 77.2905H66.3099V50.0483Z" fill="#403937"/>
<path d="M84.7894 71.4124V60.1425C84.7894 58.2237 85.3311 56.6967 86.4145 55.5616C87.525 54.3995 89.1908 53.8184 91.4118 53.8184C93.6328 53.8184 95.2714 54.3995 96.3278 55.5616C97.4112 56.6967 97.9529 58.2237 97.9529 60.1425V67.1963H87.6333V71.2908C87.6333 72.5069 88.0126 73.4123 88.7709 74.0069C89.5293 74.6015 90.7075 74.8987 92.3056 74.8987C93.9036 74.8987 95.5558 74.6555 97.2622 74.169V76.8446C95.908 77.277 94.2964 77.4932 92.4275 77.4932C87.3354 77.4932 84.7894 75.4663 84.7894 71.4124ZM87.6333 64.8045H95.1902V60.1425C95.1902 57.6021 93.9307 56.3318 91.4118 56.3318C88.8928 56.3318 87.6333 57.6021 87.6333 60.1425V64.8045Z" fill="#403937"/>
<path d="M102.891 48.1024H105.776V77.2905H102.891V48.1024Z" fill="#403937"/>
<path d="M112.804 51.6293C111.639 51.6293 111.057 51.0077 111.057 49.7645C111.057 48.5213 111.639 47.8997 112.804 47.8997C113.996 47.8997 114.591 48.5213 114.591 49.7645C114.591 51.0077 113.996 51.6293 112.804 51.6293ZM111.382 54.386H114.266V77.2905H111.382V54.386Z" fill="#403937"/>
<path d="M129.136 54.2238H132.061L126.942 77.2905H122.879L117.76 54.2238H120.726L122.96 64.8045L124.951 75.2636C125.764 70.7773 127.158 63.764 129.136 54.2238Z" fill="#403937"/>
<path d="M135.138 71.4124V60.1425C135.138 58.2237 135.68 56.6967 136.763 55.5616C137.874 54.3995 139.54 53.8184 141.761 53.8184C143.982 53.8184 145.62 54.3995 146.677 55.5616C147.76 56.6967 148.302 58.2237 148.302 60.1425V67.1963H137.982V71.2908C137.982 72.5069 138.361 73.4123 139.12 74.0069C139.878 74.6015 141.056 74.8987 142.654 74.8987C144.252 74.8987 145.905 74.6555 147.611 74.169V76.8446C146.257 77.277 144.645 77.4932 142.776 77.4932C137.684 77.4932 135.138 75.4663 135.138 71.4124ZM137.982 64.8045H145.539V60.1425C145.539 57.6021 144.28 56.3318 141.761 56.3318C139.242 56.3318 137.982 57.6021 137.982 60.1425V64.8045Z" fill="#403937"/>
<path d="M160.715 54.1022H161.731V56.8588H160.35C159.375 56.8588 158.494 57.1156 157.709 57.6291C157.465 57.7912 156.937 58.1561 156.125 58.7236V77.2905H153.24V54.2238H156.003V55.967C156.084 55.9129 156.287 55.7643 156.612 55.5211C156.964 55.2778 157.167 55.1427 157.221 55.1157C157.303 55.0616 157.479 54.9535 157.75 54.7914C158.048 54.6292 158.264 54.5346 158.4 54.5076C158.562 54.4535 158.779 54.386 159.05 54.3049C159.456 54.1698 160.011 54.1022 160.715 54.1022Z" fill="#403937"/>
<path d="M174.09 54.2238H176.975L170.637 83.3309H167.874L169.134 77.2905H167.712L162.674 54.2238H165.599L168.037 65.6964L169.824 75.2636C170.366 72.0745 170.962 68.8854 171.612 65.6964L174.09 54.2238Z" fill="#403937"/>
</svg>
