<svg width="209" height="62" viewBox="0 0 209 62" fill="none" xmlns="http://www.w3.org/2000/svg">
<path opacity="0.5" d="M64.5303 0.719097L48.8513 56.2627C48.7716 56.5148 48.4527 56.5905 48.2667 56.414L37.7697 46.455L45.6358 18.6201C45.7155 18.368 45.4763 18.1411 45.2106 18.2167L15.8722 25.6797L5.42841 15.7711C5.24239 15.5946 5.32211 15.292 5.58785 15.2164L64.1051 0.315694C64.3709 0.265269 64.61 0.492183 64.5303 0.719097Z" fill="#00B37E"/>
<path opacity="0.5" d="M37.7691 46.4545L33.7298 60.8257C33.6501 61.0779 33.3312 61.1535 33.1452 60.977L0.564699 30.0914C0.378677 29.9149 0.4584 29.6124 0.724146 29.5367L15.8717 25.6792L37.7691 46.4545Z" fill="#00B37E"/>
<path d="M45.6345 18.6196L37.7684 46.4544L15.8709 25.6792L45.2093 18.2162C45.475 18.1406 45.7142 18.3675 45.6345 18.6196Z" fill="#00B37E"/>
<path d="M86.146 21.0014V39.1909H82.4106V21.0014H86.146ZM97.9892 25.6737H101.25V38.7412C101.25 39.9738 100.975 41.019 100.425 41.8769C99.8839 42.743 99.126 43.3968 98.1516 43.8383C97.1771 44.288 96.0445 44.5129 94.7535 44.5129C94.1872 44.5129 93.5875 44.4379 92.9546 44.288C92.3299 44.1381 91.7303 43.9049 91.1556 43.5884C90.5892 43.2719 90.1145 42.8721 89.7314 42.3891L91.318 40.2653C91.7344 40.7484 92.2175 41.1231 92.7672 41.3897C93.3169 41.6645 93.9248 41.8019 94.5911 41.8019C95.2407 41.8019 95.7904 41.6812 96.2402 41.4396C96.6899 41.2064 97.0356 40.8608 97.2771 40.4027C97.5186 39.953 97.6394 39.4075 97.6394 38.7662V28.7969L97.9892 25.6737ZM88.8944 32.5947V32.3324C88.8944 31.2996 89.0193 30.3626 89.2692 29.5215C89.5274 28.672 89.8897 27.9432 90.3561 27.3352C90.8308 26.7272 91.4054 26.2567 92.0801 25.9235C92.7547 25.5904 93.5167 25.4238 94.3663 25.4238C95.2657 25.4238 96.0195 25.5904 96.6275 25.9235C97.2354 26.2567 97.7352 26.7314 98.1266 27.3477C98.518 27.9557 98.822 28.6761 99.0386 29.509C99.2634 30.3335 99.4383 31.2371 99.5633 32.2199V32.7946C99.4383 33.7357 99.2509 34.6102 99.0011 35.4181C98.7512 36.226 98.4223 36.9339 98.0142 37.5419C97.6061 38.1415 97.098 38.6079 96.49 38.9411C95.8904 39.2742 95.1741 39.4408 94.3413 39.4408C93.5084 39.4408 92.7547 39.27 92.0801 38.9286C91.4138 38.5871 90.8433 38.1082 90.3685 37.4919C89.8938 36.8756 89.5274 36.151 89.2692 35.3181C89.0193 34.4853 88.8944 33.5775 88.8944 32.5947ZM92.4923 32.3324V32.5947C92.4923 33.1527 92.5465 33.6732 92.6547 34.1563C92.763 34.6394 92.9296 35.0683 93.1544 35.4431C93.3876 35.8095 93.675 36.0969 94.0165 36.3051C94.3663 36.505 94.7785 36.6049 95.2532 36.6049C95.9112 36.6049 96.4484 36.4675 96.8648 36.1926C97.2812 35.9095 97.5936 35.5222 97.8018 35.0308C98.01 34.5394 98.1308 33.9731 98.1641 33.3318V31.6952C98.1474 31.1705 98.0766 30.7 97.9517 30.2835C97.8268 29.8588 97.6519 29.4965 97.427 29.1967C97.2021 28.8968 96.9106 28.6636 96.5525 28.4971C96.1944 28.3305 95.7696 28.2472 95.2782 28.2472C94.8035 28.2472 94.3912 28.3555 94.0414 28.572C93.7 28.7802 93.4126 29.0676 93.1794 29.434C92.9546 29.8005 92.7838 30.2336 92.6672 30.7333C92.5506 31.2247 92.4923 31.7577 92.4923 32.3324ZM107.571 28.5595V39.1909H103.973V25.6737H107.346L107.571 28.5595ZM107.046 31.9576H106.072C106.072 30.9581 106.201 30.0587 106.459 29.2591C106.717 28.4512 107.08 27.7641 107.546 27.1978C108.013 26.6231 108.566 26.1859 109.208 25.886C109.857 25.5779 110.582 25.4238 111.381 25.4238C112.014 25.4238 112.593 25.5154 113.118 25.6987C113.643 25.8819 114.092 26.1734 114.467 26.5732C114.85 26.9729 115.142 27.5018 115.342 28.1597C115.55 28.8177 115.654 29.6214 115.654 30.5709V39.1909H112.031V30.5584C112.031 29.9587 111.948 29.4923 111.781 29.1592C111.615 28.826 111.369 28.5928 111.044 28.4596C110.728 28.318 110.336 28.2472 109.87 28.2472C109.387 28.2472 108.966 28.343 108.608 28.5345C108.258 28.7261 107.967 28.9926 107.734 29.3341C107.509 29.6672 107.338 30.0587 107.221 30.5084C107.105 30.9581 107.046 31.4412 107.046 31.9576ZM122.188 25.6737V39.1909H118.577V25.6737H122.188ZM118.352 22.1507C118.352 21.626 118.536 21.1929 118.902 20.8514C119.269 20.51 119.76 20.3392 120.376 20.3392C120.984 20.3392 121.472 20.51 121.838 20.8514C122.213 21.1929 122.4 21.626 122.4 22.1507C122.4 22.6754 122.213 23.1085 121.838 23.4499C121.472 23.7914 120.984 23.9622 120.376 23.9622C119.76 23.9622 119.269 23.7914 118.902 23.4499C118.536 23.1085 118.352 22.6754 118.352 22.1507ZM131.782 25.6737V28.2222H123.912V25.6737H131.782ZM125.861 22.3381H129.459V35.1183C129.459 35.5097 129.509 35.8095 129.609 36.0177C129.717 36.226 129.875 36.3717 130.083 36.455C130.291 36.5299 130.554 36.5674 130.87 36.5674C131.095 36.5674 131.295 36.5591 131.47 36.5424C131.653 36.5175 131.807 36.4925 131.932 36.4675L131.945 39.116C131.637 39.2159 131.303 39.295 130.945 39.3533C130.587 39.4116 130.192 39.4408 129.758 39.4408C128.967 39.4408 128.276 39.3117 127.685 39.0535C127.102 38.787 126.652 38.3622 126.335 37.7792C126.019 37.1962 125.861 36.43 125.861 35.4805V22.3381ZM140.053 39.4408C139.003 39.4408 138.062 39.2742 137.229 38.9411C136.396 38.5996 135.688 38.129 135.105 37.5294C134.531 36.9297 134.089 36.2343 133.781 35.4431C133.473 34.6435 133.319 33.794 133.319 32.8945V32.3948C133.319 31.3704 133.465 30.4334 133.756 29.5839C134.048 28.7344 134.464 27.9973 135.005 27.3727C135.555 26.7481 136.221 26.2692 137.004 25.936C137.787 25.5945 138.67 25.4238 139.653 25.4238C140.611 25.4238 141.46 25.5821 142.201 25.8985C142.943 26.215 143.563 26.6648 144.063 27.2478C144.571 27.8308 144.954 28.5304 145.212 29.3466C145.47 30.1544 145.599 31.0539 145.599 32.045V33.5442H134.856V31.1455H142.064V30.8707C142.064 30.371 141.972 29.9254 141.789 29.534C141.614 29.1342 141.348 28.8177 140.99 28.5845C140.631 28.3513 140.173 28.2347 139.615 28.2347C139.141 28.2347 138.732 28.3388 138.391 28.547C138.05 28.7552 137.771 29.0467 137.554 29.4215C137.346 29.7963 137.188 30.2377 137.079 30.7458C136.979 31.2455 136.929 31.7952 136.929 32.3948V32.8945C136.929 33.4359 137.004 33.9356 137.154 34.3937C137.312 34.8517 137.533 35.2473 137.816 35.5805C138.108 35.9136 138.458 36.1718 138.866 36.355C139.282 36.5383 139.753 36.6299 140.277 36.6299C140.927 36.6299 141.531 36.505 142.089 36.2551C142.655 35.9969 143.142 35.6096 143.551 35.0933L145.3 36.9922C145.016 37.4003 144.629 37.7917 144.138 38.1665C143.655 38.5413 143.072 38.8494 142.389 39.091C141.706 39.3242 140.927 39.4408 140.053 39.4408ZM157.992 21.0014V39.1909H154.244V21.0014H157.992ZM165.238 28.7719V31.6952H156.968V28.7719H165.238ZM166.113 21.0014V23.9372H156.968V21.0014H166.113ZM174.008 39.4408C172.959 39.4408 172.018 39.2742 171.185 38.9411C170.352 38.5996 169.644 38.129 169.061 37.5294C168.486 36.9297 168.045 36.2343 167.737 35.4431C167.429 34.6435 167.274 33.794 167.274 32.8945V32.3948C167.274 31.3704 167.42 30.4334 167.712 29.5839C168.003 28.7344 168.42 27.9973 168.961 27.3727C169.511 26.7481 170.177 26.2692 170.96 25.936C171.743 25.5945 172.626 25.4238 173.608 25.4238C174.566 25.4238 175.416 25.5821 176.157 25.8985C176.898 26.215 177.519 26.6648 178.018 27.2478C178.526 27.8308 178.909 28.5304 179.168 29.3466C179.426 30.1544 179.555 31.0539 179.555 32.045V33.5442H168.811V31.1455H176.019V30.8707C176.019 30.371 175.928 29.9254 175.745 29.534C175.57 29.1342 175.303 28.8177 174.945 28.5845C174.587 28.3513 174.129 28.2347 173.571 28.2347C173.096 28.2347 172.688 28.3388 172.347 28.547C172.005 28.7552 171.726 29.0467 171.51 29.4215C171.301 29.7963 171.143 30.2377 171.035 30.7458C170.935 31.2455 170.885 31.7952 170.885 32.3948V32.8945C170.885 33.4359 170.96 33.9356 171.11 34.3937C171.268 34.8517 171.489 35.2473 171.772 35.5805C172.063 35.9136 172.413 36.1718 172.821 36.355C173.238 36.5383 173.708 36.6299 174.233 36.6299C174.883 36.6299 175.486 36.505 176.044 36.2551C176.611 35.9969 177.098 35.6096 177.506 35.0933L179.255 36.9922C178.972 37.4003 178.585 37.7917 178.093 38.1665C177.61 38.5413 177.027 38.8494 176.344 39.091C175.661 39.3242 174.883 39.4408 174.008 39.4408ZM187.825 39.4408C186.776 39.4408 185.835 39.2742 185.002 38.9411C184.169 38.5996 183.461 38.129 182.878 37.5294C182.303 36.9297 181.862 36.2343 181.554 35.4431C181.246 34.6435 181.092 33.794 181.092 32.8945V32.3948C181.092 31.3704 181.237 30.4334 181.529 29.5839C181.82 28.7344 182.237 27.9973 182.778 27.3727C183.328 26.7481 183.994 26.2692 184.777 25.936C185.56 25.5945 186.443 25.4238 187.425 25.4238C188.383 25.4238 189.233 25.5821 189.974 25.8985C190.715 26.215 191.336 26.6648 191.835 27.2478C192.343 27.8308 192.726 28.5304 192.985 29.3466C193.243 30.1544 193.372 31.0539 193.372 32.045V33.5442H182.628V31.1455H189.836V30.8707C189.836 30.371 189.745 29.9254 189.562 29.534C189.387 29.1342 189.12 28.8177 188.762 28.5845C188.404 28.3513 187.946 28.2347 187.388 28.2347C186.913 28.2347 186.505 28.3388 186.164 28.547C185.822 28.7552 185.543 29.0467 185.327 29.4215C185.118 29.7963 184.96 30.2377 184.852 30.7458C184.752 31.2455 184.702 31.7952 184.702 32.3948V32.8945C184.702 33.4359 184.777 33.9356 184.927 34.3937C185.085 34.8517 185.306 35.2473 185.589 35.5805C185.88 35.9136 186.23 36.1718 186.638 36.355C187.055 36.5383 187.525 36.6299 188.05 36.6299C188.7 36.6299 189.303 36.505 189.861 36.2551C190.428 35.9969 190.915 35.6096 191.323 35.0933L193.072 36.9922C192.789 37.4003 192.402 37.7917 191.91 38.1665C191.427 38.5413 190.844 38.8494 190.161 39.091C189.478 39.3242 188.7 39.4408 187.825 39.4408ZM203.404 36.2426V20.0019H207.027V39.1909H203.766L203.404 36.2426ZM194.859 32.5947V32.3324C194.859 31.2996 194.975 30.3626 195.208 29.5215C195.442 28.672 195.783 27.9432 196.233 27.3352C196.683 26.7272 197.236 26.2567 197.894 25.9235C198.552 25.5904 199.302 25.4238 200.143 25.4238C200.934 25.4238 201.626 25.5904 202.217 25.9235C202.817 26.2567 203.325 26.7314 203.741 27.3477C204.166 27.9557 204.507 28.6761 204.765 29.509C205.024 30.3335 205.211 31.2371 205.328 32.2199V32.7946C205.211 33.7357 205.024 34.6102 204.765 35.4181C204.507 36.226 204.166 36.9339 203.741 37.5419C203.325 38.1415 202.817 38.6079 202.217 38.9411C201.617 39.2742 200.918 39.4408 200.118 39.4408C199.277 39.4408 198.527 39.27 197.869 38.9286C197.22 38.5871 196.67 38.1082 196.22 37.4919C195.779 36.8756 195.442 36.151 195.208 35.3181C194.975 34.4853 194.859 33.5775 194.859 32.5947ZM198.457 32.3324V32.5947C198.457 33.1527 198.498 33.6732 198.581 34.1563C198.673 34.6394 198.819 35.0683 199.019 35.4431C199.227 35.8095 199.493 36.0969 199.818 36.3051C200.151 36.505 200.555 36.6049 201.03 36.6049C201.646 36.6049 202.154 36.4675 202.554 36.1926C202.954 35.9095 203.258 35.5222 203.466 35.0308C203.683 34.5394 203.808 33.9731 203.841 33.3318V31.6952C203.816 31.1705 203.741 30.7 203.616 30.2835C203.499 29.8588 203.325 29.4965 203.091 29.1967C202.867 28.8968 202.583 28.6636 202.242 28.4971C201.909 28.3305 201.513 28.2472 201.055 28.2472C200.589 28.2472 200.189 28.3555 199.856 28.572C199.523 28.7802 199.252 29.0676 199.044 29.434C198.844 29.8005 198.694 30.2336 198.594 30.7333C198.502 31.2247 198.457 31.7577 198.457 32.3324Z" fill="#E1E1E6"/>
</svg>
