<svg width="230" height="46" viewBox="0 0 230 46" fill="none" xmlns="http://www.w3.org/2000/svg">
<path d="M7.37939 1.41504V35.54H0.559082V1.41504H7.37939ZM26.2466 10.1807H32.1997V35.54C32.1997 37.8525 31.7544 39.7432 30.8638 41.2119C29.9888 42.6963 28.7622 43.7822 27.1841 44.4697C25.6216 45.1729 23.7935 45.5244 21.6997 45.5244C20.9028 45.5244 20.0044 45.415 19.0044 45.1963C18.02 44.9775 17.0669 44.6416 16.145 44.1885C15.2231 43.751 14.4653 43.2197 13.8716 42.5947L16.0981 38.0479C16.7075 38.6572 17.5044 39.1729 18.4888 39.5947C19.4731 40.0322 20.4419 40.251 21.395 40.251C22.3169 40.251 23.0825 40.1025 23.6919 39.8057C24.3169 39.5244 24.7856 39.04 25.0981 38.3525C25.4263 37.665 25.5903 36.7432 25.5903 35.5869V16.0635L26.2466 10.1807ZM12.0903 23.751V22.0635C12.0903 20.001 12.2856 18.1963 12.6763 16.6494C13.0669 15.1025 13.6294 13.8135 14.3638 12.7822C15.0981 11.751 15.9966 10.9854 17.0591 10.4854C18.1372 9.96973 19.3403 9.71191 20.6685 9.71191C22.0591 9.71191 23.2231 10.0166 24.1606 10.626C25.0981 11.2197 25.856 12.0557 26.4341 13.1338C27.0278 14.2119 27.481 15.4854 27.7935 16.9541C28.1216 18.4229 28.3716 20.0322 28.5435 21.7822V24.2197C28.3716 25.876 28.0903 27.4229 27.6997 28.8604C27.3247 30.2979 26.8247 31.5479 26.1997 32.6104C25.5747 33.6729 24.8091 34.5088 23.9028 35.1182C22.9966 35.7119 21.9028 36.0088 20.6216 36.0088C19.3091 36.0088 18.1216 35.7432 17.0591 35.2119C16.0122 34.6807 15.1138 33.8994 14.3638 32.8682C13.6294 31.8213 13.0669 30.54 12.6763 29.0244C12.2856 27.4932 12.0903 25.7354 12.0903 23.751ZM18.6763 22.0635V23.751C18.6763 24.9385 18.7466 25.9619 18.8872 26.8213C19.0435 27.665 19.2778 28.3604 19.5903 28.9072C19.9028 29.4385 20.3013 29.8369 20.7856 30.1025C21.2856 30.3525 21.8716 30.4775 22.5435 30.4775C23.4966 30.4775 24.2544 30.2588 24.8169 29.8213C25.395 29.3682 25.8169 28.751 26.0825 27.9697C26.3638 27.1729 26.52 26.2588 26.5513 25.2275V20.7979C26.5356 19.9385 26.4341 19.165 26.2466 18.4775C26.0747 17.79 25.8325 17.2041 25.52 16.7197C25.2075 16.2354 24.8013 15.8604 24.3013 15.5947C23.8169 15.3291 23.2466 15.1963 22.5903 15.1963C21.9185 15.1963 21.3403 15.3291 20.856 15.5947C20.3716 15.8604 19.9653 16.2744 19.6372 16.8369C19.3247 17.3838 19.0825 18.0947 18.9106 18.9697C18.7544 19.8291 18.6763 20.8604 18.6763 22.0635ZM43.5435 15.5947V35.54H36.9575V10.1807H43.1216L43.5435 15.5947ZM42.5591 21.9932L40.8013 22.04C40.77 20.1338 40.9497 18.4229 41.3403 16.9072C41.7466 15.3916 42.3169 14.1025 43.0513 13.04C43.8013 11.9619 44.6919 11.1416 45.7231 10.5791C46.77 10.001 47.9341 9.71191 49.2153 9.71191C50.1997 9.71191 51.0981 9.88379 51.9106 10.2275C52.7388 10.5713 53.4497 11.1182 54.0435 11.8682C54.6372 12.6182 55.0981 13.6182 55.4263 14.8682C55.7544 16.1025 55.9185 17.6182 55.9185 19.415V35.54H49.3325V19.3682C49.3325 18.2744 49.2231 17.4307 49.0044 16.8369C48.7856 16.2275 48.4575 15.8057 48.02 15.5713C47.5825 15.3213 47.0356 15.1963 46.3794 15.1963C45.7544 15.1963 45.1997 15.376 44.7153 15.7354C44.231 16.0791 43.8247 16.5557 43.4966 17.165C43.1841 17.7744 42.9419 18.4932 42.77 19.3213C42.6138 20.1494 42.5435 21.04 42.5591 21.9932ZM67.6138 10.1807V35.54H61.0278V10.1807H67.6138ZM60.7231 3.61816C60.7231 2.60254 61.0435 1.7666 61.6841 1.11035C62.3403 0.438477 63.2153 0.102539 64.3091 0.102539C65.4185 0.102539 66.2935 0.438477 66.9341 1.11035C67.5747 1.7666 67.895 2.60254 67.895 3.61816C67.895 4.61816 67.5669 5.4541 66.9106 6.12598C66.27 6.78223 65.4106 7.11035 64.3325 7.11035C63.2231 7.11035 62.3403 6.78223 61.6841 6.12598C61.0435 5.4541 60.7231 4.61816 60.7231 3.61816ZM83.8794 10.1807V15.126H70.9419V10.1807H83.8794ZM73.9185 3.92285H80.4575V27.8057C80.4575 28.5088 80.5278 29.0479 80.6685 29.4229C80.8091 29.7979 81.02 30.0635 81.3013 30.2197C81.5981 30.3604 81.9888 30.4307 82.4731 30.4307C82.8013 30.4307 83.106 30.415 83.3872 30.3838C83.6685 30.3369 83.8794 30.29 84.02 30.2432V35.376C83.5044 35.5791 82.9575 35.7354 82.3794 35.8447C81.8169 35.9541 81.145 36.0088 80.3638 36.0088C79.0513 36.0088 77.9106 35.7588 76.9419 35.2588C75.9888 34.7588 75.2466 33.9619 74.7153 32.8682C74.1841 31.7588 73.9185 30.3057 73.9185 28.5088V3.92285ZM97.7544 36.0088C96.02 36.0088 94.481 35.7432 93.1372 35.2119C91.8091 34.6807 90.6841 33.915 89.7622 32.915C88.8403 31.8994 88.1372 30.6729 87.6528 29.2354C87.1685 27.7979 86.9263 26.1572 86.9263 24.3135V22.2275C86.9263 20.165 87.1606 18.3604 87.6294 16.8135C88.0981 15.251 88.7622 13.9385 89.6216 12.876C90.481 11.8135 91.5356 11.0244 92.7856 10.5088C94.0513 9.97754 95.481 9.71191 97.0747 9.71191C98.6685 9.71191 100.067 9.97754 101.27 10.5088C102.489 11.0244 103.497 11.8057 104.293 12.8525C105.09 13.8838 105.692 15.165 106.098 16.6963C106.504 18.2275 106.708 20.0088 106.708 22.04V25.04H89.7153V20.4229H100.262V19.8369C100.262 18.8057 100.153 17.9463 99.9341 17.2588C99.7153 16.5557 99.3716 16.0322 98.9028 15.6885C98.4341 15.3447 97.8091 15.1729 97.0278 15.1729C96.3716 15.1729 95.8169 15.3057 95.3638 15.5713C94.9106 15.8369 94.5513 16.251 94.2856 16.8135C94.02 17.376 93.8247 18.1104 93.6997 19.0166C93.5747 19.9072 93.5122 20.9775 93.5122 22.2275V24.3135C93.5122 25.4854 93.6138 26.4697 93.8169 27.2666C94.02 28.0479 94.3169 28.6885 94.7075 29.1885C95.1138 29.6729 95.606 30.0244 96.1841 30.2432C96.7622 30.4463 97.4341 30.5479 98.1997 30.5479C99.356 30.5479 100.395 30.3447 101.317 29.9385C102.254 29.5166 103.051 28.9463 103.708 28.2275L106.333 32.2119C105.879 32.8057 105.254 33.3994 104.458 33.9932C103.661 34.5869 102.708 35.0713 101.598 35.4463C100.489 35.8213 99.2075 36.0088 97.7544 36.0088ZM134.083 1.41504V35.54H127.262V1.41504H134.083ZM142.567 1.41504V7.11035H118.942V1.41504H142.567ZM153.114 10.1807V35.54H146.528V10.1807H153.114ZM146.223 3.61816C146.223 2.60254 146.543 1.7666 147.184 1.11035C147.84 0.438477 148.715 0.102539 149.809 0.102539C150.918 0.102539 151.793 0.438477 152.434 1.11035C153.075 1.7666 153.395 2.60254 153.395 3.61816C153.395 4.61816 153.067 5.4541 152.411 6.12598C151.77 6.78223 150.911 7.11035 149.833 7.11035C148.723 7.11035 147.84 6.78223 147.184 6.12598C146.543 5.4541 146.223 4.61816 146.223 3.61816ZM164.926 15.4307V35.54H158.34V10.1807H164.528L164.926 15.4307ZM163.989 21.9932L162.184 22.04C162.153 20.2588 162.309 18.6182 162.653 17.1182C162.997 15.6182 163.512 14.3135 164.2 13.2041C164.903 12.0947 165.786 11.2354 166.848 10.626C167.911 10.0166 169.153 9.71191 170.575 9.71191C171.497 9.71191 172.348 9.88379 173.129 10.2275C173.911 10.5557 174.59 11.0791 175.168 11.7979C175.747 12.501 176.192 13.4229 176.504 14.5635C176.817 15.6885 176.973 17.04 176.973 18.6182V35.54H170.411V19.415C170.411 18.29 170.301 17.4307 170.083 16.8369C169.864 16.2275 169.551 15.8057 169.145 15.5713C168.739 15.3213 168.239 15.1963 167.645 15.1963C167.02 15.1963 166.473 15.3682 166.004 15.7119C165.536 16.0557 165.153 16.54 164.856 17.165C164.575 17.7744 164.356 18.4932 164.2 19.3213C164.059 20.1494 163.989 21.04 163.989 21.9932ZM176.34 21.3369L173.973 21.6416C173.942 19.9697 174.09 18.415 174.418 16.9775C174.747 15.5244 175.254 14.2588 175.942 13.1807C176.629 12.0869 177.489 11.2354 178.52 10.626C179.567 10.0166 180.778 9.71191 182.153 9.71191C183.184 9.71191 184.122 9.88379 184.965 10.2275C185.809 10.5713 186.528 11.126 187.122 11.8916C187.731 12.6416 188.192 13.6338 188.504 14.8682C188.833 16.1025 188.997 17.6025 188.997 19.3682V35.54H182.411V19.3916C182.411 18.251 182.301 17.376 182.083 16.7666C181.864 16.1572 181.551 15.7432 181.145 15.5244C180.739 15.3057 180.254 15.1963 179.692 15.1963C179.129 15.1963 178.637 15.3525 178.215 15.665C177.809 15.9775 177.465 16.415 177.184 16.9775C176.903 17.5244 176.692 18.1729 176.551 18.9229C176.411 19.6572 176.34 20.4619 176.34 21.3369ZM204.161 36.0088C202.426 36.0088 200.887 35.7432 199.543 35.2119C198.215 34.6807 197.09 33.915 196.168 32.915C195.247 31.8994 194.543 30.6729 194.059 29.2354C193.575 27.7979 193.333 26.1572 193.333 24.3135V22.2275C193.333 20.165 193.567 18.3604 194.036 16.8135C194.504 15.251 195.168 13.9385 196.028 12.876C196.887 11.8135 197.942 11.0244 199.192 10.5088C200.458 9.97754 201.887 9.71191 203.481 9.71191C205.075 9.71191 206.473 9.97754 207.676 10.5088C208.895 11.0244 209.903 11.8057 210.7 12.8525C211.497 13.8838 212.098 15.165 212.504 16.6963C212.911 18.2275 213.114 20.0088 213.114 22.04V25.04H196.122V20.4229H206.668V19.8369C206.668 18.8057 206.559 17.9463 206.34 17.2588C206.122 16.5557 205.778 16.0322 205.309 15.6885C204.84 15.3447 204.215 15.1729 203.434 15.1729C202.778 15.1729 202.223 15.3057 201.77 15.5713C201.317 15.8369 200.958 16.251 200.692 16.8135C200.426 17.376 200.231 18.1104 200.106 19.0166C199.981 19.9072 199.918 20.9775 199.918 22.2275V24.3135C199.918 25.4854 200.02 26.4697 200.223 27.2666C200.426 28.0479 200.723 28.6885 201.114 29.1885C201.52 29.6729 202.012 30.0244 202.59 30.2432C203.168 30.4463 203.84 30.5479 204.606 30.5479C205.762 30.5479 206.801 30.3447 207.723 29.9385C208.661 29.5166 209.458 28.9463 210.114 28.2275L212.739 32.2119C212.286 32.8057 211.661 33.3994 210.864 33.9932C210.067 34.5869 209.114 35.0713 208.004 35.4463C206.895 35.8213 205.614 36.0088 204.161 36.0088ZM223.473 15.8291V35.54H216.911V10.1807H223.098L223.473 15.8291ZM229.45 9.99316L229.356 16.5322C229.059 16.4697 228.7 16.4229 228.278 16.3916C227.872 16.3604 227.512 16.3447 227.2 16.3447C226.465 16.3447 225.84 16.4619 225.325 16.6963C224.809 16.915 224.379 17.251 224.036 17.7041C223.708 18.1416 223.458 18.6885 223.286 19.3447C223.114 20.001 223.012 20.7432 222.981 21.5713L221.739 21.1025C221.739 19.4463 221.864 17.9307 222.114 16.5557C222.379 15.165 222.77 13.9619 223.286 12.9463C223.801 11.915 224.418 11.1182 225.137 10.5557C225.872 9.99316 226.7 9.71191 227.622 9.71191C227.934 9.71191 228.262 9.74316 228.606 9.80566C228.965 9.85254 229.247 9.91504 229.45 9.99316Z" fill="white"/>
</svg>
