<svg width="40" height="41" viewBox="0 0 40 41" fill="none" xmlns="http://www.w3.org/2000/svg">
<path d="M35.7143 0.741455H4.28571C1.91964 0.741455 0 2.6611 0 5.02717V36.4557C0 38.8218 1.91964 40.7415 4.28571 40.7415H35.7143C38.0804 40.7415 40 38.8218 40 36.4557V5.02717C40 2.6611 38.0804 0.741455 35.7143 0.741455ZM21.7679 31.9379C21.7679 35.8307 19.4821 37.6075 16.1518 37.6075C13.1429 37.6075 11.4018 36.054 10.5089 34.17L13.5714 32.3218C14.1607 33.3665 14.6964 34.2504 15.9911 34.2504C17.2232 34.2504 18.0089 33.7682 18.0089 31.8843V19.1075H21.7679V31.9379ZM30.6607 37.6075C27.1696 37.6075 24.9107 35.9468 23.8125 33.7682L26.875 32.0004C27.6786 33.3129 28.7321 34.2861 30.5804 34.2861C32.1339 34.2861 33.1339 33.5093 33.1339 32.429C33.1339 31.1432 32.1161 30.6879 30.3929 29.929L29.4554 29.5272C26.7411 28.3754 24.9464 26.92 24.9464 23.8575C24.9464 21.0361 27.0982 18.8932 30.4464 18.8932C32.8393 18.8932 34.5536 19.7236 35.7857 21.9022L32.8571 23.7772C32.2143 22.6254 31.5179 22.17 30.4375 22.17C29.3393 22.17 28.6429 22.8665 28.6429 23.7772C28.6429 24.9022 29.3393 25.3575 30.9554 26.0629L31.8929 26.4647C35.0893 27.8307 36.8839 29.2325 36.8839 32.3754C36.8839 35.7504 34.2232 37.6075 30.6607 37.6075Z" fill="white"/>
</svg>
