<svg width="213" height="41" viewBox="0 0 213 41" fill="none" xmlns="http://www.w3.org/2000/svg">
<path fill-rule="evenodd" clip-rule="evenodd" d="M12.4829 20.8047V16.468L0.494629 20.9239H0.471924V25.3741H0.494629L12.4829 29.8299V25.4876L6.33549 23.1376L12.4829 20.799V20.8047Z" fill="#F7DD43"/>
<path fill-rule="evenodd" clip-rule="evenodd" d="M81.9205 29.6141V25.2775L88.0622 22.9445L81.9205 20.6116V16.2749L93.8917 20.7308H93.9201V25.1867H93.8917L81.9205 29.6198V29.6141ZM76.7778 10.1389L69.7393 32.7361H73.917L80.9555 10.1389H76.7778Z" fill="#F7DD43"/>
<path fill-rule="evenodd" clip-rule="evenodd" d="M30.0965 15.8718C31.2885 17.1773 31.9129 18.9029 31.8391 20.6682V30.2951H27.6613V21.5537C27.7124 20.5774 27.4002 19.6238 26.7872 18.8632C26.2082 18.1877 25.3511 17.8131 24.4599 17.8528C21.8432 17.8528 20.532 19.6692 20.532 23.2963V30.2951H16.3542V14.4925H20.532V15.9172C21.8602 14.6287 23.6596 13.9419 25.51 14.0213C27.2356 13.9475 28.9044 14.623 30.0965 15.8718Z" fill="#F7DD43"/>
<path fill-rule="evenodd" clip-rule="evenodd" d="M37.1635 7.698V30.2952H41.3412V7.698H37.1635Z" fill="#F7DD43"/>
<path fill-rule="evenodd" clip-rule="evenodd" d="M64.9654 30.2952H61.4802L58.0631 20.9861L54.6119 30.2952H51.1267L45.2688 14.4641H49.736L53.0282 23.9321L56.4226 14.4641H59.6865L63.0809 23.9605L66.3731 14.4641H70.8403L64.9767 30.2952H64.9654Z" fill="#F7DD43"/>
<path d="M116.607 40.6864C112.327 40.6864 107.829 39.8753 104.304 37.9218V3.45536C107.774 1.55707 112.271 0.690737 116.607 0.690737C120.943 0.690737 125.334 1.50186 128.8 3.45536V16.6797H120.073V7.68085C119.045 7.24769 117.796 7.08631 116.552 7.08631C115.308 7.08631 114.165 7.24769 113.082 7.68085V33.6963C114.11 34.1295 115.303 34.2909 116.552 34.2909C117.801 34.2909 118.99 34.1295 120.073 33.6963V24.7017H128.8V37.9261C125.385 39.8243 120.888 40.6355 116.607 40.6907V40.6864Z" fill="#F7DD43"/>
<path d="M145.167 40.6864C140.559 40.6864 136.117 39.7096 132.592 37.7052V3.61667C136.062 1.66742 140.508 0.690674 145.167 0.690674C149.825 0.690674 154.161 1.61221 157.631 3.61667V37.7052C154.216 39.7096 149.719 40.6312 145.167 40.6864ZM148.908 7.7912C147.88 7.35804 146.632 7.14145 145.116 7.14145C143.6 7.14145 142.406 7.35804 141.374 7.7912V33.5349C142.402 34.0232 143.651 34.2398 145.116 34.2398C146.581 34.2398 147.825 34.0232 148.908 33.5349V7.7912Z" fill="#F7DD43"/>
<path d="M172.859 26.0522H170.528V40.198H161.695V1.17907H172.859C178.172 1.17907 182.181 2.26199 185.324 4.48303V22.7482C182.236 24.9183 178.168 26.0522 172.859 26.0522ZM176.546 7.8974C175.734 7.30286 174.647 7.03106 172.804 7.03106H170.418V20.2002H172.804C174.592 20.2002 175.675 19.9284 176.546 19.389V7.8974Z" fill="#F7DD43"/>
<path d="M203.801 40.198V26.0521H197.299V40.198H188.521V3.56146C191.719 1.66317 196.216 0.690674 200.552 0.690674C204.888 0.690674 209.33 1.66742 212.528 3.56146V40.198H203.801ZM203.801 7.46421C202.88 7.03104 201.741 6.81446 200.548 6.81446C199.355 6.81446 198.217 7.03104 197.295 7.46421V19.8731H203.797V7.46421H203.801Z" fill="#F7DD43"/>
</svg>
