<svg width="40" height="31" viewBox="0 0 40 31" fill="none" xmlns="http://www.w3.org/2000/svg">
<path d="M18.865 23.2899C18.8463 23.3274 18.8275 23.3574 18.865 23.2899V23.2899ZM34.4356 17.8524C33.1786 17.852 31.9383 18.1407 30.8106 18.6962C30.4419 17.9524 30.0606 17.3024 29.9981 16.8149C29.9231 16.2462 29.8419 15.9087 29.9294 15.2337C30.0169 14.5587 30.4106 13.6024 30.4044 13.5337C30.3981 13.4649 30.3169 13.1212 29.5106 13.1149C28.7044 13.1087 28.0106 13.2712 27.93 13.4837C27.7876 13.872 27.6768 14.2712 27.5988 14.6774C27.455 15.4087 25.9869 18.0212 25.1556 19.3837C24.8806 18.8524 24.6494 18.3837 24.5994 18.0087C24.5244 17.4399 24.4431 17.1024 24.5306 16.4274C24.6181 15.7524 25.0119 14.7962 25.0056 14.7274C24.9994 14.6587 24.9181 14.3149 24.1125 14.3087C23.3069 14.3024 22.6125 14.4649 22.5313 14.6774C22.45 14.8899 22.3625 15.3899 22.2 15.8712C22.0375 16.3524 20.0819 20.7024 19.57 21.8337C19.3075 22.4087 19.0825 22.8712 18.92 23.1837C18.895 23.2337 18.8763 23.2649 18.8638 23.2899C18.8825 23.2587 18.895 23.2274 18.895 23.2399C18.7575 23.5086 18.6763 23.6587 18.6763 23.6587V23.6649C18.57 23.8649 18.4513 24.0462 18.395 24.0462C18.3575 24.0462 18.2763 23.5212 18.4138 22.8024C18.7075 21.2899 19.4013 18.9399 19.395 18.8587C19.3888 18.8149 19.5263 18.4087 18.9388 18.1899C18.37 17.9837 18.1638 18.3274 18.1138 18.3274C18.0638 18.3274 18.0263 18.4524 18.0263 18.4524C18.0263 18.4524 18.6575 15.8024 16.8144 15.8024C15.6644 15.8024 14.0644 17.0649 13.2781 18.2087C12.7844 18.4774 11.7156 19.0587 10.5906 19.6774C10.1594 19.9149 9.71565 20.1586 9.2969 20.3899C9.26565 20.3587 9.24065 20.3274 9.2094 20.2962C6.97252 17.9086 2.84252 16.2212 3.01752 13.0149C3.08002 11.8462 3.48627 8.7774 10.9594 5.0524C17.0844 2.0024 21.9813 2.8399 22.8244 4.7024C24.0369 7.35865 20.2063 12.3024 13.8456 13.0149C11.4213 13.2837 10.1469 12.3462 9.82815 11.9962C9.4969 11.6274 9.4469 11.6087 9.3219 11.6774C9.11565 11.7899 9.2469 12.1149 9.3219 12.3087C9.5094 12.8024 10.2906 13.6774 11.6213 14.1149C12.79 14.4962 15.6325 14.7087 19.0694 13.3774C22.9306 11.8899 25.9363 7.74615 25.055 4.2774C24.1575 0.752401 18.3125 -0.403849 12.7856 1.55865C9.49252 2.7274 5.93127 4.5649 3.3694 6.95865C0.326272 9.80865 -0.160604 12.2899 0.0393964 13.3274C0.751271 17.0087 5.82502 19.4087 7.85565 21.1837C7.75565 21.2399 7.6619 21.2899 7.5744 21.3399C6.55627 21.8462 2.68815 23.8712 1.72002 26.0087C0.626271 28.4337 1.90127 30.1712 2.73815 30.4087C5.35002 31.1337 8.0244 29.8274 9.46127 27.6837C10.8981 25.5399 10.7238 22.7399 10.0613 21.4649C10.055 21.4462 10.0425 21.4337 10.0363 21.4149C10.2988 21.2587 10.5675 21.1024 10.8363 20.9462C11.3544 20.6399 11.8606 20.3587 12.3044 20.1149C12.0544 20.7899 11.8731 21.6024 11.7794 22.7774C11.6669 24.1524 12.2356 25.9337 12.9731 26.6337C13.2981 26.9399 13.6913 26.9462 13.935 26.9462C14.7975 26.9462 15.185 26.2337 15.6156 25.3837C16.1469 24.3462 16.6156 23.1399 16.6156 23.1399C16.6156 23.1399 16.0281 26.4024 17.6344 26.4024C18.2213 26.4024 18.8088 25.6462 19.0719 25.2587V25.2649C19.0719 25.2649 19.0844 25.2399 19.1156 25.1899C19.1781 25.0962 19.2094 25.0399 19.2094 25.0399V25.0212C19.4469 24.6149 19.9656 23.6837 20.7463 22.1462C21.7588 20.1587 22.7269 17.6774 22.7269 17.6774C22.8204 18.2228 22.9499 18.7615 23.1144 19.2899C23.2894 19.8837 23.6581 20.5337 23.9519 21.1649C23.7144 21.4899 23.5706 21.6774 23.5706 21.6774C23.5711 21.6822 23.5733 21.6867 23.5769 21.6899C23.3894 21.9399 23.1769 22.2087 22.9581 22.4712C22.1588 23.4212 21.2081 24.5087 21.0831 24.8212C20.9331 25.1899 20.9706 25.4649 21.2581 25.6774C21.4706 25.8399 21.8456 25.8649 22.2388 25.8337C22.9575 25.7837 23.4638 25.6087 23.7075 25.4962C24.1569 25.335 24.5816 25.112 24.9694 24.8337C25.7506 24.2586 26.2256 23.4337 26.1819 22.3462C26.1569 21.7462 25.9631 21.1462 25.7256 20.5837C25.7944 20.4837 25.8694 20.3774 25.9381 20.2712C27.175 18.4649 28.1313 16.4824 28.1313 16.4824C28.2248 17.0278 28.3543 17.5665 28.5188 18.0949C28.6688 18.6012 28.9619 19.1574 29.2306 19.7012C28.0688 20.6449 27.35 21.7387 27.1 22.4574C26.6375 23.7887 27 24.3887 27.6813 24.5262C27.9875 24.5887 28.425 24.4449 28.75 24.3074C29.2327 24.1466 29.6878 23.9127 30.0994 23.6137C30.8806 23.0387 31.6363 22.2324 31.5863 21.1387C31.5675 20.6449 31.43 20.1512 31.2488 19.6762C32.23 19.2637 33.5044 19.0387 35.1294 19.2262C38.6094 19.6324 39.2906 21.8074 39.1594 22.7137C39.0281 23.6199 38.2969 24.1262 38.0531 24.2762C37.8094 24.4262 37.7344 24.4824 37.7531 24.5949C37.7844 24.7574 37.8969 24.7512 38.1031 24.7137C38.3906 24.6637 39.9275 23.9762 39.9963 22.2949C40.0963 20.1699 38.0531 17.8324 34.4338 17.8512L34.4356 17.8524ZM7.6119 26.8962C6.46252 28.1524 4.85002 28.6274 4.1569 28.2274C3.41315 27.7949 3.7069 25.9462 5.12502 24.6074C5.98752 23.7949 7.0994 23.0449 7.8369 22.5824C8.00565 22.4824 8.2494 22.3324 8.5494 22.1512C8.5994 22.1199 8.6244 22.1074 8.6244 22.1074C8.68065 22.0699 8.74315 22.0387 8.80565 22.0012C9.32377 23.9011 8.8244 25.5762 7.6119 26.8949V26.8962ZM16.0094 21.1837C15.6094 22.1649 14.7663 24.6649 14.2538 24.5337C13.8163 24.4212 13.5475 22.5149 14.1663 20.6399C14.4788 19.6961 15.1413 18.5712 15.535 18.1337C16.1656 17.4274 16.8594 17.2024 17.0219 17.4837C17.2406 17.8524 16.2594 20.5712 16.0094 21.1837ZM22.9469 24.4962C22.7781 24.5837 22.6219 24.6399 22.5469 24.5962C22.4906 24.5649 22.6156 24.4462 22.6156 24.4462C22.6156 24.4462 23.4844 23.5149 23.8281 23.0899C24.0281 22.8399 24.2594 22.5462 24.5088 22.2212C24.5088 22.2524 24.515 22.2837 24.515 22.3212C24.5069 23.4399 23.4325 24.1962 22.945 24.4962H22.9469ZM28.2956 23.2774C28.1706 23.1899 28.1894 22.8962 28.6081 21.9837C28.7706 21.6274 29.145 21.0274 29.7956 20.4524C29.8693 20.6701 29.9093 20.8977 29.9144 21.1274C29.9081 22.5337 28.9019 23.0587 28.2963 23.2774H28.2956Z" fill="white"/>
</svg>
